<?xml version="1.0" encoding="UTF-8" standalone="no"?>
<!-- Created with Inkscape (http://www.inkscape.org/) -->

<svg
   xmlns:dc="http://purl.org/dc/elements/1.1/"
   xmlns:cc="http://creativecommons.org/ns#"
   xmlns:rdf="http://www.w3.org/1999/02/22-rdf-syntax-ns#"
   xmlns:svg="http://www.w3.org/2000/svg"
   xmlns="http://www.w3.org/2000/svg"
   xmlns:sodipodi="http://sodipodi.sourceforge.net/DTD/sodipodi-0.dtd"
   xmlns:inkscape="http://www.inkscape.org/namespaces/inkscape"
   version="1.1"
   id="svg2"
   xml:space="preserve"
   width="666.66669"
   height="666.66669"
   viewBox="0 0 666.66669 666.66669"
   sodipodi:docname="494642-PHERZJ-463.ai.svg"
   inkscape:version="0.92.5 (2060ec1f9f, 2020-04-08)"><metadata
     id="metadata8"><rdf:RDF><cc:Work
         rdf:about=""><dc:format>image/svg+xml</dc:format><dc:type
           rdf:resource="http://purl.org/dc/dcmitype/StillImage" /><dc:title></dc:title></cc:Work></rdf:RDF></metadata><defs
     id="defs6"><clipPath
       clipPathUnits="userSpaceOnUse"
       id="clipPath20"><path
         d="M 0,500 H 500 V 0 H 0 Z"
         id="path18"
         inkscape:connector-curvature="0" /></clipPath><clipPath
       clipPathUnits="userSpaceOnUse"
       id="clipPath28"><path
         d="M 0,188.081 H 500 V 0 H 0 Z"
         id="path26"
         inkscape:connector-curvature="0" /></clipPath><clipPath
       clipPathUnits="userSpaceOnUse"
       id="clipPath32"><path
         d="M 500,0 V 188.081 C 473.021,182.487 447.392,172.762 424.441,156.957 405.43,143.865 388.067,124.844 386.66,101.803 385.324,79.948 398.497,59.932 402.105,38.335 404.298,25.212 402.953,12.438 399.357,0 Z"
         id="path30"
         inkscape:connector-curvature="0" /></clipPath><linearGradient
       x1="0"
       y1="0"
       x2="1"
       y2="0"
       gradientUnits="userSpaceOnUse"
       gradientTransform="matrix(87.793358,-338.09781,-338.09781,-87.793358,438.11404,138.57733)"
       spreadMethod="pad"
       id="linearGradient42"><stop
         style="stop-opacity:1;stop-color:#1ae5ff"
         offset="0"
         id="stop34" /><stop
         style="stop-opacity:1;stop-color:#1ae5ff"
         offset="0.02572617"
         id="stop36" /><stop
         style="stop-opacity:1;stop-color:#eaeeee"
         offset="0.704338"
         id="stop38" /><stop
         style="stop-opacity:1;stop-color:#eaeeee"
         offset="1"
         id="stop40" /></linearGradient><clipPath
       clipPathUnits="userSpaceOnUse"
       id="clipPath46"><path
         d="M 51.895,43.713 C 35.767,54.819 18.312,62.914 0,68.691 V 0 H 87.62 C 82.279,17.921 67.659,32.857 51.895,43.713"
         id="path44"
         inkscape:connector-curvature="0" /></clipPath><linearGradient
       x1="0"
       y1="0"
       x2="1"
       y2="0"
       gradientUnits="userSpaceOnUse"
       gradientTransform="matrix(42.610809,-164.09694,-164.09694,-42.610809,28.318111,59.659771)"
       spreadMethod="pad"
       id="linearGradient56"><stop
         style="stop-opacity:1;stop-color:#1ae5ff"
         offset="0"
         id="stop48" /><stop
         style="stop-opacity:1;stop-color:#1ae5ff"
         offset="0.02572617"
         id="stop50" /><stop
         style="stop-opacity:1;stop-color:#eaeeee"
         offset="0.704338"
         id="stop52" /><stop
         style="stop-opacity:1;stop-color:#eaeeee"
         offset="1"
         id="stop54" /></linearGradient><clipPath
       clipPathUnits="userSpaceOnUse"
       id="clipPath88"><path
         d="M 0,500 H 500 V 0 H 0 Z"
         id="path86"
         inkscape:connector-curvature="0" /></clipPath><clipPath
       clipPathUnits="userSpaceOnUse"
       id="clipPath96"><path
         d="M 218.229,157.404 H 340.713 V 88.5875 H 218.229 Z"
         id="path94"
         inkscape:connector-curvature="0" /></clipPath><clipPath
       clipPathUnits="userSpaceOnUse"
       id="clipPath100"><path
         d="m 220.229,146.569 c -2.657,-1.534 -2.666,-4.016 -0.031,-5.548 l 88.247,-51.283 c 2.64,-1.534 6.92,-1.534 9.578,0 l 20.69,9.686 c 2.652,1.531 2.671,4.014 0.031,5.548 l -88.247,51.284 c -2.635,1.531 -6.926,1.531 -9.578,0 z"
         id="path98"
         inkscape:connector-curvature="0" /></clipPath><linearGradient
       x1="0"
       y1="0"
       x2="1"
       y2="0"
       gradientUnits="userSpaceOnUse"
       gradientTransform="matrix(-122.48402,0,0,-122.48402,340.71304,122.99583)"
       spreadMethod="pad"
       id="linearGradient106"><stop
         style="stop-opacity:1;stop-color:#5155d4"
         offset="0"
         id="stop102" /><stop
         style="stop-opacity:1;stop-color:#45f7ff"
         offset="1"
         id="stop104" /></linearGradient><clipPath
       clipPathUnits="userSpaceOnUse"
       id="clipPath136"><path
         d="m 180.971,335.69 h 28.823 v -20.276 h -28.823 z"
         id="path134"
         inkscape:connector-curvature="0" /></clipPath><clipPath
       clipPathUnits="userSpaceOnUse"
       id="clipPath156"><path
         d="m 376.263,338.581 h 20.762 v -28.186 h -20.762 z"
         id="path154"
         inkscape:connector-curvature="0" /></clipPath><clipPath
       clipPathUnits="userSpaceOnUse"
       id="clipPath172"><path
         d="M 383.239,311.894 H 404 v -28.187 h -20.761 z"
         id="path170"
         inkscape:connector-curvature="0" /></clipPath><clipPath
       clipPathUnits="userSpaceOnUse"
       id="clipPath188"><path
         d="m 197.123,293.815 h 13.414 v -18.212 h -13.414 z"
         id="path186"
         inkscape:connector-curvature="0" /></clipPath><clipPath
       clipPathUnits="userSpaceOnUse"
       id="clipPath204"><path
         d="m 201.63,276.572 h 13.414 V 258.36 H 201.63 Z"
         id="path202"
         inkscape:connector-curvature="0" /></clipPath><clipPath
       clipPathUnits="userSpaceOnUse"
       id="clipPath220"><path
         d="m 248.801,429.987 c -0.139,-0.001 -0.272,-0.015 -0.41,-0.02 v 0 c -0.106,-0.004 -0.211,-0.008 -0.317,-0.015 v 0 c -0.109,-0.007 -0.22,-0.006 -0.328,-0.016 v 0 c -0.4,-0.036 -0.79,-0.092 -1.173,-0.17 v 0 c -0.007,-0.001 -0.014,-0.003 -0.021,-0.005 v 0 c -0.086,-0.018 -0.164,-0.05 -0.249,-0.07 v 0 c -0.392,-0.089 -0.781,-0.184 -1.152,-0.316 v 0 c -0.043,-0.016 -0.085,-0.036 -0.128,-0.052 v 0 c -0.063,-0.023 -0.122,-0.051 -0.184,-0.075 v 0 c -0.462,-0.182 -0.911,-0.388 -1.336,-0.635 v 0 l -9.098,-5.287 c 0.426,0.247 0.875,0.453 1.337,0.635 v 0 c 0.061,0.025 0.121,0.051 0.183,0.075 v 0 c 0.412,0.153 0.843,0.269 1.281,0.369 v 0 c 0.084,0.02 0.163,0.051 0.248,0.068 v 0 c 0.492,0.1 1.002,0.159 1.522,0.192 v 0 c 0.105,0.007 0.211,0.012 0.318,0.015 v 0 c 0.504,0.019 1.018,0.013 1.546,-0.03 v 0 c 0.062,-0.006 0.126,-0.014 0.188,-0.019 v 0 c 0.551,-0.053 1.113,-0.138 1.687,-0.26 v 0 c 0.058,-0.012 0.117,-0.026 0.175,-0.039 v 0 c 0.587,-0.13 1.184,-0.297 1.791,-0.501 v 0 c 0.042,-0.014 0.084,-0.026 0.125,-0.041 v 0 c 0.635,-0.218 1.278,-0.475 1.932,-0.774 v 0 c 0.044,-0.02 0.088,-0.041 0.132,-0.061 v 0 c 0.662,-0.309 1.335,-0.653 2.015,-1.047 v 0 l 86.866,-50.151 c 0.688,-0.397 1.366,-0.831 2.036,-1.295 v 0 c 0.04,-0.027 0.079,-0.056 0.119,-0.084 v 0 c 0.624,-0.436 1.24,-0.901 1.847,-1.391 v 0 c 0.067,-0.055 0.136,-0.11 0.203,-0.166 v 0 c 0.586,-0.48 1.163,-0.985 1.73,-1.51 v 0 c 0.067,-0.063 0.135,-0.126 0.202,-0.189 v 0 c 0.574,-0.54 1.137,-1.103 1.687,-1.685 v 0 c 0.047,-0.05 0.094,-0.097 0.14,-0.147 v 0 c 0.588,-0.628 1.162,-1.276 1.719,-1.946 v 0 c 0.007,-0.009 0.013,-0.017 0.019,-0.024 v 0 c 0.572,-0.687 1.125,-1.396 1.661,-2.123 v 0 c 0,0 0,0 0.002,-10e-4 v 0 c 0.488,-0.664 0.958,-1.348 1.417,-2.041 v 0 c 0.284,-0.43 0.551,-0.872 0.823,-1.311 v 0 c 0.224,-0.365 0.458,-0.726 0.673,-1.097 v 0 c 0.103,-0.175 0.2,-0.355 0.299,-0.532 v 0 c 0.354,-0.626 0.7,-1.257 1.027,-1.896 v 0 c 0.035,-0.069 0.071,-0.138 0.106,-0.207 v 0 c 0.392,-0.778 0.764,-1.565 1.111,-2.358 v 0 c 0.017,-0.04 0.035,-0.081 0.052,-0.121 v 0 c 2.164,-4.976 3.423,-10.186 3.409,-15.006 v 0 l 9.098,5.287 c 0.012,4.272 -0.99,8.848 -2.721,13.297 v 0 l 0.015,0.009 c -0.129,0.33 -0.262,0.66 -0.398,0.988 v 0 c -0.099,0.238 -0.202,0.476 -0.305,0.712 v 0 c -0.018,0.041 -0.035,0.081 -0.053,0.122 v 0 c -0.019,0.045 -0.038,0.091 -0.058,0.136 v 0 c -0.145,0.329 -0.294,0.657 -0.447,0.982 v 0 c -0.169,0.36 -0.342,0.719 -0.521,1.075 v 0 c -0.027,0.055 -0.056,0.109 -0.084,0.165 v 0 c -0.035,0.069 -0.072,0.137 -0.107,0.206 v 0 c -0.144,0.283 -0.289,0.569 -0.439,0.85 v 0 c -0.189,0.354 -0.391,0.7 -0.589,1.05 v 0 c -0.099,0.175 -0.194,0.352 -0.296,0.527 v 0 c -0.04,0.069 -0.077,0.14 -0.117,0.21 v 0 c -0.178,0.302 -0.375,0.592 -0.56,0.892 v 0 c -0.27,0.438 -0.537,0.878 -0.82,1.306 v 0 c -0.045,0.069 -0.085,0.141 -0.131,0.209 v 0 c -0.416,0.622 -0.845,1.234 -1.287,1.834 v 0 c -0.001,0 -0.001,0 -0.001,0 v 0 c -0.296,0.402 -0.598,0.798 -0.905,1.188 v 0 c -0.248,0.315 -0.5,0.627 -0.756,0.935 v 0 c -0.006,0.007 -0.013,0.016 -0.018,0.023 v 0 c -0.004,0.004 -0.007,0.007 -0.01,0.012 v 0 c -0.26,0.31 -0.522,0.617 -0.787,0.92 v 0 c -0.26,0.297 -0.524,0.589 -0.791,0.876 v 0 c -0.042,0.047 -0.087,0.092 -0.131,0.138 v 0 c -0.047,0.05 -0.095,0.099 -0.142,0.149 v 0 c -0.186,0.197 -0.371,0.394 -0.559,0.585 v 0 c -0.283,0.288 -0.569,0.571 -0.857,0.848 v 0 c -0.089,0.086 -0.179,0.167 -0.27,0.25 v 0 c -0.067,0.064 -0.135,0.127 -0.204,0.19 v 0 c -0.14,0.131 -0.279,0.265 -0.421,0.393 v 0 c -0.299,0.269 -0.6,0.531 -0.905,0.789 v 0 c -0.133,0.112 -0.269,0.219 -0.403,0.328 v 0 c -0.066,0.056 -0.135,0.112 -0.202,0.166 v 0 c -0.101,0.082 -0.2,0.166 -0.3,0.245 v 0 c -0.296,0.234 -0.593,0.461 -0.893,0.681 v 0 c -0.217,0.16 -0.435,0.312 -0.654,0.465 v 0 c -0.04,0.028 -0.079,0.057 -0.119,0.084 v 0 c -0.038,0.026 -0.075,0.054 -0.111,0.08 v 0 c -0.288,0.196 -0.575,0.387 -0.864,0.572 v 0 c -0.286,0.181 -0.573,0.357 -0.863,0.526 v 0 c -0.065,0.039 -0.132,0.078 -0.199,0.117 v 0 l -86.866,50.152 c -0.217,0.125 -0.431,0.245 -0.646,0.362 v 0 c -0.28,0.151 -0.558,0.295 -0.834,0.432 v 0 c -0.179,0.089 -0.357,0.169 -0.535,0.252 v 0 c -0.044,0.02 -0.087,0.042 -0.131,0.061 v 0 c -0.051,0.024 -0.106,0.051 -0.158,0.075 v 0 c -0.272,0.122 -0.544,0.237 -0.813,0.345 v 0 c -0.276,0.111 -0.549,0.213 -0.822,0.309 v 0 c -0.047,0.016 -0.092,0.029 -0.139,0.045 v 0 c -0.042,0.015 -0.082,0.027 -0.125,0.041 v 0 c -0.184,0.062 -0.369,0.125 -0.55,0.18 v 0 c -0.283,0.086 -0.564,0.163 -0.841,0.232 v 0 c -0.135,0.034 -0.266,0.059 -0.4,0.09 v 0 c -0.058,0.012 -0.117,0.026 -0.175,0.038 v 0 c -0.087,0.018 -0.174,0.042 -0.259,0.058 v 0 c -0.301,0.058 -0.597,0.107 -0.891,0.146 v 0 c -0.181,0.025 -0.359,0.038 -0.537,0.055 v 0 c -0.063,0.007 -0.126,0.015 -0.189,0.019 v 0 c -0.059,0.006 -0.12,0.015 -0.18,0.019 v 0 c -0.309,0.022 -0.615,0.032 -0.916,0.032 v 0 c -0.014,0 -0.027,0 -0.04,0"
         id="path218"
         inkscape:connector-curvature="0" /></clipPath><linearGradient
       x1="0"
       y1="0"
       x2="1"
       y2="0"
       gradientUnits="userSpaceOnUse"
       gradientTransform="matrix(130.7253,0,0,-130.7253,234.40546,383.3067)"
       spreadMethod="pad"
       id="linearGradient234"><stop
         style="stop-opacity:1;stop-color:#7f5eff"
         offset="0"
         id="stop226" /><stop
         style="stop-opacity:1;stop-color:#7f5eff"
         offset="0.30329118"
         id="stop228" /><stop
         style="stop-opacity:1;stop-color:#b391ff"
         offset="0.939976"
         id="stop230" /><stop
         style="stop-opacity:1;stop-color:#b391ff"
         offset="1"
         id="stop232" /></linearGradient><clipPath
       clipPathUnits="userSpaceOnUse"
       id="clipPath244"><path
         d="m 353.327,349.933 c 0.129,-0.332 0.253,-0.664 0.374,-0.997 v 0 c 0.125,-0.345 0.246,-0.691 0.362,-1.037 v 0 c 0.117,-0.351 0.229,-0.702 0.337,-1.052 v 0 c 0.11,-0.358 0.214,-0.717 0.314,-1.075 v 0 c 0.099,-0.36 0.194,-0.72 0.284,-1.079 v 0 c 0.088,-0.356 0.171,-0.711 0.248,-1.067 v 0 c 0.078,-0.353 0.15,-0.708 0.216,-1.061 v 0 c 0.064,-0.344 0.123,-0.687 0.177,-1.028 v 0 c 0.054,-0.342 0.102,-0.683 0.145,-1.022 v 0 c 0.043,-0.333 0.081,-0.665 0.111,-0.996 v 0 c 0.032,-0.332 0.058,-0.662 0.079,-0.99 v 0 c 0.021,-0.33 0.036,-0.658 0.046,-0.984 v 0 c 0.009,-0.308 0.015,-0.614 0.013,-0.918 v 0 l -0.591,-208.43 c -0.002,-0.772 -0.041,-1.515 -0.107,-2.231 v 0 c -0.006,-0.065 -0.012,-0.128 -0.02,-0.193 v 0 c -0.066,-0.657 -0.159,-1.289 -0.277,-1.897 v 0 c -0.016,-0.081 -0.031,-0.162 -0.047,-0.242 v 0 c -0.123,-0.588 -0.27,-1.151 -0.439,-1.69 v 0 c -0.03,-0.102 -0.065,-0.2 -0.099,-0.299 v 0 c -0.169,-0.509 -0.357,-0.995 -0.569,-1.455 v 0 c -0.022,-0.051 -0.04,-0.105 -0.063,-0.155 v 0 c -0.248,-0.525 -0.522,-1.019 -0.818,-1.482 v 0 c -0.041,-0.063 -0.088,-0.117 -0.129,-0.179 v 0 c -0.247,-0.367 -0.509,-0.713 -0.786,-1.038 v 0 c -0.102,-0.119 -0.208,-0.232 -0.314,-0.345 v 0 c -0.244,-0.262 -0.498,-0.507 -0.762,-0.737 v 0 c -0.11,-0.096 -0.218,-0.195 -0.332,-0.286 v 0 c -0.374,-0.3 -0.763,-0.579 -1.175,-0.819 v 0 l 9.097,5.286 c 0.412,0.241 0.801,0.521 1.177,0.82 v 0 c 0.114,0.091 0.22,0.189 0.331,0.286 v 0 c 0.264,0.231 0.518,0.476 0.762,0.738 v 0 c 0.105,0.113 0.212,0.225 0.313,0.344 v 0 c 0.277,0.325 0.54,0.671 0.787,1.038 v 0 c 0.04,0.063 0.087,0.116 0.129,0.18 v 0 c 0.009,0.013 0.019,0.026 0.027,0.04 v 0 c 0.28,0.436 0.536,0.9 0.769,1.393 v 0 c 0.007,0.015 0.013,0.032 0.021,0.047 v 0 c 0.023,0.051 0.043,0.107 0.065,0.158 v 0 c 0.142,0.309 0.279,0.622 0.402,0.95 v 0 c 0.06,0.163 0.11,0.335 0.166,0.502 v 0 c 0.034,0.1 0.068,0.199 0.1,0.3 v 0 c 0.029,0.091 0.061,0.178 0.089,0.27 v 0 c 0.099,0.337 0.189,0.682 0.27,1.038 v 0 c 0.029,0.124 0.052,0.255 0.078,0.381 v 0 c 0.017,0.081 0.032,0.162 0.048,0.244 v 0 c 0.024,0.124 0.053,0.244 0.075,0.37 v 0 c 0.055,0.318 0.104,0.642 0.144,0.972 v 0 c 0.023,0.181 0.04,0.369 0.058,0.555 v 0 c 0.007,0.064 0.014,0.127 0.02,0.192 v 0 c 0.008,0.078 0.018,0.153 0.024,0.232 v 0 c 0.025,0.314 0.046,0.633 0.059,0.958 v 0 c 0.015,0.322 0.022,0.65 0.023,0.983 v 0 c 0.001,0.02 0.001,0.039 0.001,0.058 v 0 l 0.591,208.43 c 0.001,0.305 -0.004,0.611 -0.013,0.918 v 0 c -0.01,0.326 -0.025,0.654 -0.046,0.984 v 0 c -0.02,0.329 -0.046,0.658 -0.079,0.989 v 0 c -0.031,0.332 -0.068,0.664 -0.11,0.997 v 0 c -0.043,0.34 -0.092,0.68 -0.145,1.022 v 0 c -0.055,0.342 -0.114,0.685 -0.179,1.029 v 0 c -0.066,0.353 -0.138,0.706 -0.216,1.061 v 0 c -0.076,0.354 -0.16,0.71 -0.247,1.065 v 0 c -0.09,0.36 -0.184,0.719 -0.285,1.08 v 0 c -0.099,0.359 -0.204,0.717 -0.313,1.075 v 0 c -0.108,0.351 -0.221,0.702 -0.338,1.052 v 0 c -0.115,0.347 -0.236,0.692 -0.361,1.037 v 0 c -0.121,0.333 -0.246,0.665 -0.374,0.997 v 0 z"
         id="path242"
         inkscape:connector-curvature="0" /></clipPath><linearGradient
       x1="0"
       y1="0"
       x2="1"
       y2="0"
       gradientUnits="userSpaceOnUse"
       gradientTransform="matrix(0,224.69664,224.69664,0,357.31757,104.16599)"
       spreadMethod="pad"
       id="linearGradient258"><stop
         style="stop-opacity:1;stop-color:#5745ff"
         offset="0"
         id="stop250" /><stop
         style="stop-opacity:1;stop-color:#5745ff"
         offset="0.30329118"
         id="stop252" /><stop
         style="stop-opacity:1;stop-color:#a46eff"
         offset="0.939976"
         id="stop254" /><stop
         style="stop-opacity:1;stop-color:#a46eff"
         offset="1"
         id="stop256" /></linearGradient><clipPath
       clipPathUnits="userSpaceOnUse"
       id="clipPath268"><path
         d="m 228.469,410.276 -0.59,-208.43 c -0.037,-12.908 9.049,-28.645 20.282,-35.13 v 0 l 86.867,-50.152 c 11.233,-6.486 20.377,-1.275 20.414,11.633 v 0 l 0.591,208.429 c 0.037,12.918 -9.049,28.645 -20.282,35.131 v 0 l -86.866,50.151 c -3.28,1.894 -6.381,2.792 -9.13,2.791 v 0 c -6.667,0 -11.259,-5.278 -11.286,-14.423"
         id="path266"
         inkscape:connector-curvature="0" /></clipPath><linearGradient
       x1="0"
       y1="0"
       x2="1"
       y2="0"
       gradientUnits="userSpaceOnUse"
       gradientTransform="matrix(-49.912445,286.56625,286.56625,49.912445,331.8421,40.236019)"
       spreadMethod="pad"
       id="linearGradient282"><stop
         style="stop-opacity:1;stop-color:#7f5eff"
         offset="0"
         id="stop274" /><stop
         style="stop-opacity:1;stop-color:#7f5eff"
         offset="0.30329118"
         id="stop276" /><stop
         style="stop-opacity:1;stop-color:#b391ff"
         offset="0.939976"
         id="stop278" /><stop
         style="stop-opacity:1;stop-color:#b391ff"
         offset="1"
         id="stop280" /></linearGradient><clipPath
       clipPathUnits="userSpaceOnUse"
       id="clipPath292"><path
         d="m 278.843,381.735 c -0.004,-1.572 1.097,-3.478 2.456,-4.263 v 0 l 22.402,-12.933 c 1.359,-0.786 2.467,-0.154 2.472,1.418 v 0 c 0.003,1.563 -1.096,3.47 -2.457,4.253 v 0 l -22.4,12.934 c -0.397,0.229 -0.772,0.338 -1.105,0.338 v 0 c -0.807,0 -1.364,-0.64 -1.368,-1.747"
         id="path290"
         inkscape:connector-curvature="0" /></clipPath><linearGradient
       x1="0"
       y1="0"
       x2="1"
       y2="0"
       gradientUnits="userSpaceOnUse"
       gradientTransform="matrix(0,-16.340717,-16.340717,0,292.50797,358.67642)"
       spreadMethod="pad"
       id="linearGradient306"><stop
         style="stop-opacity:1;stop-color:#7f5eff"
         offset="0"
         id="stop298" /><stop
         style="stop-opacity:1;stop-color:#7f5eff"
         offset="0.30329118"
         id="stop300" /><stop
         style="stop-opacity:1;stop-color:#b391ff"
         offset="0.939976"
         id="stop302" /><stop
         style="stop-opacity:1;stop-color:#b391ff"
         offset="1"
         id="stop304" /></linearGradient><clipPath
       clipPathUnits="userSpaceOnUse"
       id="clipPath316"><path
         d="m 285.27,167.851 c -0.011,-4.216 2.953,-9.351 6.622,-11.469 v 0 c 3.666,-2.118 6.651,-0.417 6.664,3.797 v 0 c 0.012,4.216 -2.954,9.351 -6.621,11.469 v 0 c -1.071,0.618 -2.083,0.911 -2.98,0.911 v 0 c -2.177,0 -3.676,-1.724 -3.685,-4.708"
         id="path314"
         inkscape:connector-curvature="0" /></clipPath><linearGradient
       x1="0"
       y1="0"
       x2="1"
       y2="0"
       gradientUnits="userSpaceOnUse"
       gradientTransform="matrix(0,68.348877,68.348877,0,291.91312,121.37718)"
       spreadMethod="pad"
       id="linearGradient330"><stop
         style="stop-opacity:1;stop-color:#9a79ff"
         offset="0"
         id="stop322" /><stop
         style="stop-opacity:1;stop-color:#9a79ff"
         offset="0.07660675"
         id="stop324" /><stop
         style="stop-opacity:1;stop-color:#b391ff"
         offset="0.939976"
         id="stop326" /><stop
         style="stop-opacity:1;stop-color:#b391ff"
         offset="1"
         id="stop328" /></linearGradient><clipPath
       clipPathUnits="userSpaceOnUse"
       id="clipPath340"><path
         d="M 0,500 H 500 V 0 H 0 Z"
         id="path338"
         inkscape:connector-curvature="0" /></clipPath><clipPath
       clipPathUnits="userSpaceOnUse"
       id="clipPath372"><path
         d="m 275.964,335.374 c -0.119,-0.212 -0.231,-0.433 -0.338,-0.659 v 0 c -0.534,-1.135 -0.921,-2.446 -1.138,-3.918 v 0 c -0.129,-0.883 -0.198,-1.825 -0.201,-2.824 v 0 c -10e-4,-0.297 0.006,-0.596 0.017,-0.897 v 0 c 0.002,-0.062 0.004,-0.125 0.006,-0.187 v 0 c 0.014,-0.293 0.032,-0.588 0.054,-0.884 v 0 c 0.005,-0.051 0.01,-0.102 0.014,-0.154 v 0 c 0.024,-0.282 0.053,-0.566 0.098,-0.953 v 0 c 0.037,-0.302 0.08,-0.606 0.127,-0.91 v 0 c 0.01,-0.065 0.021,-0.13 0.032,-0.196 v 0 c 0.049,-0.304 0.103,-0.609 0.183,-1.015 v 0 c 0.056,-0.289 0.118,-0.577 0.184,-0.867 v 0 c 0.013,-0.054 0.024,-0.108 0.037,-0.162 v 0 c 0.071,-0.304 0.148,-0.608 0.228,-0.912 v 0 c 0.016,-0.063 0.033,-0.126 0.049,-0.187 v 0 c 0.17,-0.628 0.359,-1.256 0.568,-1.883 v 0 c 0.02,-0.062 0.04,-0.123 0.061,-0.184 v 0 c 0.104,-0.306 0.21,-0.612 0.323,-0.917 v 0 c 0.018,-0.049 0.036,-0.096 0.054,-0.144 v 0 c 0.108,-0.291 0.219,-0.58 0.378,-0.975 v 0 c 0.122,-0.305 0.25,-0.609 0.382,-0.912 v 0 c 0.027,-0.063 0.054,-0.126 0.082,-0.189 v 0 c 0.134,-0.304 0.271,-0.607 0.451,-0.989 v 0 c 0.135,-0.286 0.274,-0.57 0.417,-0.853 v 0 c 0.026,-0.054 0.053,-0.108 0.08,-0.161 v 0 c 0.149,-0.294 0.302,-0.587 0.459,-0.877 v 0 c 0.03,-0.057 0.061,-0.113 0.092,-0.169 v 0 c 0.158,-0.291 0.319,-0.581 0.501,-0.896 v 0 c 0.168,-0.293 0.342,-0.582 0.516,-0.87 v 0 c 0.038,-0.059 0.074,-0.119 0.111,-0.179 v 0 c 0.173,-0.279 0.347,-0.557 0.527,-0.831 v 0 c 0.03,-0.047 0.062,-0.093 0.092,-0.14 v 0 c 0.169,-0.257 0.341,-0.511 0.593,-0.877 v 0 c 0.13,-0.188 0.265,-0.372 0.397,-0.556 v 0 c -0.3,0.459 -0.457,0.717 -0.464,0.73 v 0 c 0.018,6.479 4.607,9.093 10.253,5.834 v 0 c 5.589,-3.227 10.117,-11.018 10.176,-17.464 v 0 c 0.094,0.03 0.19,0.057 0.339,0.111 v 0 c 0.182,0.068 0.358,0.143 0.534,0.223 v 0 l 0.105,0.048 c 0.17,0.081 0.338,0.167 0.501,0.259 v 0 c 0.032,0.017 0.064,0.036 0.094,0.054 v 0 c 0.169,0.098 0.333,0.2 0.528,0.333 v 0 c 0.156,0.108 0.308,0.223 0.457,0.342 v 0 c 0.023,0.018 0.047,0.036 0.07,0.055 v 0 c 0.148,0.122 0.293,0.25 0.435,0.384 v 0 c 0.027,0.025 0.054,0.05 0.081,0.076 v 0 c 0.14,0.136 0.277,0.277 0.41,0.424 v 0 c 0.02,0.023 0.039,0.045 0.059,0.067 v 0 c 0.136,0.155 0.27,0.315 0.403,0.488 v 0 c 0.128,0.168 0.251,0.343 0.37,0.523 v 0 c 0.019,0.027 0.037,0.054 0.055,0.081 v 0 c 0.113,0.174 0.22,0.353 0.324,0.538 v 0 c 0.02,0.035 0.04,0.071 0.059,0.108 v 0 c 0.104,0.187 0.202,0.378 0.334,0.656 v 0 c 0.09,0.195 0.177,0.397 0.284,0.663 v 0 c 0.085,0.213 0.161,0.434 0.236,0.658 v 0 c 0.014,0.04 0.027,0.08 0.04,0.12 v 0 c 0.072,0.223 0.136,0.451 0.199,0.683 v 0 c 0.011,0.04 0.02,0.082 0.031,0.123 v 0 c 0.061,0.239 0.119,0.483 0.182,0.8 v 0 c 0.048,0.245 0.092,0.495 0.146,0.846 v 0 c 0.037,0.258 0.069,0.522 0.095,0.79 v 0 c 0.005,0.052 0.011,0.104 0.016,0.156 v 0 c 0.025,0.269 0.044,0.541 0.059,0.819 v 0 c 0.002,0.044 0.003,0.089 0.005,0.134 v 0 c 0.013,0.294 0.022,0.59 0.023,0.894 v 0 c 0.002,0.998 -0.061,2.016 -0.186,3.046 v 0 c -0.208,1.717 -0.586,3.47 -1.112,5.218 v 0 c -0.211,0.698 -0.446,1.396 -0.702,2.092 v 0 c -0.175,0.472 -0.364,0.942 -0.558,1.41 v 0 c -2.958,7.123 -8.192,13.743 -14.168,17.193 v 0 c -2.704,1.562 -5.261,2.302 -7.526,2.301 v 0 c -3.313,0 -6.003,-1.582 -7.623,-4.489 m 15.46,-18.993 c -3.437,1.984 -6.221,6.808 -6.21,10.756 v 0 c 0.011,3.959 2.814,5.548 6.251,3.564 v 0 c 3.445,-1.99 6.222,-6.799 6.211,-10.757 v 0 c -0.008,-2.798 -1.413,-4.418 -3.457,-4.418 v 0 c -0.841,0 -1.79,0.275 -2.795,0.855"
         id="path370"
         inkscape:connector-curvature="0" /></clipPath><linearGradient
       x1="0"
       y1="0"
       x2="1"
       y2="0"
       gradientUnits="userSpaceOnUse"
       gradientTransform="matrix(29.043877,-59.378593,-59.378593,-29.043877,276.52051,348.01205)"
       spreadMethod="pad"
       id="linearGradient386"><stop
         style="stop-opacity:1;stop-color:#9a79ff"
         offset="0"
         id="stop378" /><stop
         style="stop-opacity:1;stop-color:#9a79ff"
         offset="0.07660675"
         id="stop380" /><stop
         style="stop-opacity:1;stop-color:#fb6fb9"
         offset="0.939976"
         id="stop382" /><stop
         style="stop-opacity:1;stop-color:#fb6fb9"
         offset="1"
         id="stop384" /></linearGradient><clipPath
       clipPathUnits="userSpaceOnUse"
       id="clipPath396"><path
         d="M 0,500 H 500 V 0 H 0 Z"
         id="path394"
         inkscape:connector-curvature="0" /></clipPath><clipPath
       clipPathUnits="userSpaceOnUse"
       id="clipPath412"><path
         d="m 267.451,234.748 -0.006,-2.254 c -0.009,-3.522 2.471,-7.809 5.537,-9.58 v 0 l 29.051,-16.773 c 3.067,-1.77 5.555,-0.351 5.565,3.171 v 0 l 0.007,2.255 c 0.01,3.513 -2.464,7.805 -5.529,9.575 v 0 l -29.052,16.773 c -0.895,0.517 -1.741,0.761 -2.491,0.761 v 0 c -1.82,0 -3.074,-1.44 -3.082,-3.928"
         id="path410"
         inkscape:connector-curvature="0" /></clipPath><linearGradient
       x1="0"
       y1="0"
       x2="1"
       y2="0"
       gradientUnits="userSpaceOnUse"
       gradientTransform="matrix(0,-62.014034,-62.014034,0,287.52493,253.04276)"
       spreadMethod="pad"
       id="linearGradient422"><stop
         style="stop-opacity:1;stop-color:#5155d4"
         offset="0"
         id="stop418" /><stop
         style="stop-opacity:1;stop-color:#45f7ff"
         offset="1"
         id="stop420" /></linearGradient><clipPath
       clipPathUnits="userSpaceOnUse"
       id="clipPath432"><path
         d="M 0,500 H 500 V 0 H 0 Z"
         id="path430"
         inkscape:connector-curvature="0" /></clipPath><clipPath
       clipPathUnits="userSpaceOnUse"
       id="clipPath440"><path
         d="m 206.412,104.388 h 66.022 V 65.1572 h -66.022 z"
         id="path438"
         inkscape:connector-curvature="0" /></clipPath><clipPath
       clipPathUnits="userSpaceOnUse"
       id="clipPath444"><path
         d="m 272.435,84.772 c 0,-10.833 -14.78,-19.615 -33.012,-19.615 -18.231,0 -33.011,8.782 -33.011,19.615 0,10.833 14.78,19.616 33.011,19.616 18.232,0 33.012,-8.783 33.012,-19.616"
         id="path442"
         inkscape:connector-curvature="0" /></clipPath><linearGradient
       x1="0"
       y1="0"
       x2="1"
       y2="0"
       gradientUnits="userSpaceOnUse"
       gradientTransform="matrix(66.022079,0,0,-66.022079,206.41231,84.772484)"
       spreadMethod="pad"
       id="linearGradient450"><stop
         style="stop-opacity:1;stop-color:#5155d4"
         offset="0"
         id="stop446" /><stop
         style="stop-opacity:1;stop-color:#45f7ff"
         offset="1"
         id="stop448" /></linearGradient><clipPath
       clipPathUnits="userSpaceOnUse"
       id="clipPath484"><path
         d="m 225.524,88.011 c 0.494,-1.892 5.627,-2.979 6.578,0.027 v 0 c 0.604,1.907 2.094,62.343 2.094,62.343 v 0 l -13.122,4.828 c 0,0 3.957,-65.305 4.45,-67.198"
         id="path482"
         inkscape:connector-curvature="0" /></clipPath><linearGradient
       x1="0"
       y1="0"
       x2="1"
       y2="0"
       gradientUnits="userSpaceOnUse"
       gradientTransform="matrix(-8.3990307,-65.366371,-65.366371,8.3990307,230.45857,151.68779)"
       spreadMethod="pad"
       id="linearGradient494"><stop
         style="stop-opacity:1;stop-color:#6851f5"
         offset="0"
         id="stop490" /><stop
         style="stop-opacity:1;stop-color:#00cfff"
         offset="1"
         id="stop492" /></linearGradient><clipPath
       clipPathUnits="userSpaceOnUse"
       id="clipPath504"><path
         d="M 0,500 H 500 V 0 H 0 Z"
         id="path502"
         inkscape:connector-curvature="0" /></clipPath><clipPath
       clipPathUnits="userSpaceOnUse"
       id="clipPath516"><path
         d="m 241.03,157.176 c -5.708,0.308 -14.545,0.064 -14.855,-4.366 v 0 c -0.459,-6.558 2.616,-11.237 5.582,-14.422 v 0 c 2.192,-2.352 3.651,-6.852 4.263,-9.045 v 0 c 0.52,-17.321 1.667,-41.744 2.385,-44.082 v 0 c 1.153,-3.766 6.834,-3.596 7.091,0.071 v 0 c 1.15,12.392 2.058,69.172 2.058,69.172 v 0 c -0.213,2.021 -2.069,3.026 -4.238,3.026 v 0 c -0.743,0 -1.523,-0.118 -2.286,-0.354"
         id="path514"
         inkscape:connector-curvature="0" /></clipPath><linearGradient
       x1="0"
       y1="0"
       x2="1"
       y2="0"
       gradientUnits="userSpaceOnUse"
       gradientTransform="matrix(21.424219,0,0,-21.424219,226.12935,120.01909)"
       spreadMethod="pad"
       id="linearGradient526"><stop
         style="stop-opacity:1;stop-color:#6851f5"
         offset="0"
         id="stop522" /><stop
         style="stop-opacity:1;stop-color:#00cfff"
         offset="1"
         id="stop524" /></linearGradient><clipPath
       clipPathUnits="userSpaceOnUse"
       id="clipPath536"><path
         d="M 0,500 H 500 V 0 H 0 Z"
         id="path534"
         inkscape:connector-curvature="0" /></clipPath><clipPath
       clipPathUnits="userSpaceOnUse"
       id="clipPath572"><path
         d="m 102.337,136.888 h 66.022 V 97.6578 h -66.022 z"
         id="path570"
         inkscape:connector-curvature="0" /></clipPath><clipPath
       clipPathUnits="userSpaceOnUse"
       id="clipPath576"><path
         d="m 168.359,117.273 c 0,-10.833 -14.779,-19.615 -33.01,-19.615 -18.232,0 -33.012,8.782 -33.012,19.615 0,10.833 14.78,19.616 33.012,19.616 18.231,0 33.01,-8.783 33.01,-19.616"
         id="path574"
         inkscape:connector-curvature="0" /></clipPath><linearGradient
       x1="0"
       y1="0"
       x2="1"
       y2="0"
       gradientUnits="userSpaceOnUse"
       gradientTransform="matrix(66.022079,0,0,-66.022079,102.33736,117.27308)"
       spreadMethod="pad"
       id="linearGradient582"><stop
         style="stop-opacity:1;stop-color:#5155d4"
         offset="0"
         id="stop578" /><stop
         style="stop-opacity:1;stop-color:#45f7ff"
         offset="1"
         id="stop580" /></linearGradient><clipPath
       clipPathUnits="userSpaceOnUse"
       id="clipPath624"><path
         d="m 136.968,212.085 c 3.326,-5.404 11.429,-12.053 14.962,-12.053 v 0 c 3.533,0 21.611,1.663 23.066,3.326 v 0 c 1.454,1.661 0.208,3.948 -0.832,3.948 v 0 c -1.038,0 -14.13,-0.625 -17.246,0 v 0 c -3.118,0.623 -5.819,1.246 -7.679,8.141 v 0 c -3.107,10.425 -7.907,11.184 -7.907,11.184 v 0 c -0.092,0.009 -0.183,0.013 -0.275,0.013 v 0 c -4.226,0 -7.343,-9.27 -4.089,-14.559"
         id="path622"
         inkscape:connector-curvature="0" /></clipPath><linearGradient
       x1="0"
       y1="0"
       x2="1"
       y2="0"
       gradientUnits="userSpaceOnUse"
       gradientTransform="matrix(-13.798926,73.593956,-73.593956,-13.798926,161.6132,178.90881)"
       spreadMethod="pad"
       id="linearGradient638"><stop
         style="stop-opacity:1;stop-color:#7f5eff"
         offset="0"
         id="stop630" /><stop
         style="stop-opacity:1;stop-color:#7f5eff"
         offset="0.30329118"
         id="stop632" /><stop
         style="stop-opacity:1;stop-color:#b391ff"
         offset="0.939976"
         id="stop634" /><stop
         style="stop-opacity:1;stop-color:#b391ff"
         offset="1"
         id="stop636" /></linearGradient><clipPath
       clipPathUnits="userSpaceOnUse"
       id="clipPath648"><path
         d="M 0,500 H 500 V 0 H 0 Z"
         id="path646"
         inkscape:connector-curvature="0" /></clipPath><clipPath
       clipPathUnits="userSpaceOnUse"
       id="clipPath660"><path
         d="m 126.602,228.714 c 0,0 -10.278,-7.344 -11.294,-9.786 v 0 c -1.016,-2.444 -2.453,-10.046 0.884,-13.774 v 0 c 5.779,-6.456 2.299,-17.548 3.062,-20.811 v 0 c 0.763,-3.261 8.605,-3.666 14.048,-2.614 v 0 c 5.442,1.052 10.483,3.837 10.277,10.183 v 0 c -0.205,6.347 1.473,15.053 1.819,17.912 v 0 c 0.345,2.86 -0.031,10.041 -1.358,14.854 v 0 c -0.28,1.015 -3.699,2.081 -3.699,2.081 v 0 c 0,0 -3.036,2.007 -11.36,2.007 v 0 c -0.75,0 -1.542,-0.016 -2.379,-0.052"
         id="path658"
         inkscape:connector-curvature="0" /></clipPath><linearGradient
       x1="0"
       y1="0"
       x2="1"
       y2="0"
       gradientUnits="userSpaceOnUse"
       gradientTransform="matrix(-27.951523,55.549332,-55.549332,-27.951523,140.29074,187.27679)"
       spreadMethod="pad"
       id="linearGradient674"><stop
         style="stop-opacity:1;stop-color:#7f5eff"
         offset="0"
         id="stop666" /><stop
         style="stop-opacity:1;stop-color:#7f5eff"
         offset="0.30329118"
         id="stop668" /><stop
         style="stop-opacity:1;stop-color:#b391ff"
         offset="0.939976"
         id="stop670" /><stop
         style="stop-opacity:1;stop-color:#b391ff"
         offset="1"
         id="stop672" /></linearGradient><clipPath
       clipPathUnits="userSpaceOnUse"
       id="clipPath684"><path
         d="M 0,500 H 500 V 0 H 0 Z"
         id="path682"
         inkscape:connector-curvature="0" /></clipPath><clipPath
       clipPathUnits="userSpaceOnUse"
       id="clipPath704"><path
         d="m 118.247,203.628 h 25.242 v -12.964 h -25.242 z"
         id="path702"
         inkscape:connector-curvature="0" /></clipPath><clipPath
       clipPathUnits="userSpaceOnUse"
       id="clipPath708"><path
         d="m 118.544,203.628 12.914,-4.069 12.03,3.361 c -0.176,-0.53 -3.361,-10.261 -10.26,-12.029 -4.96,-1.272 -10.817,3.114 -13.728,5.686 -0.16,1.8 -0.543,3.594 -1.253,5.266 z"
         id="path706"
         inkscape:connector-curvature="0" /></clipPath><linearGradient
       x1="0"
       y1="0"
       x2="1"
       y2="0"
       gradientUnits="userSpaceOnUse"
       gradientTransform="matrix(-25.241631,0,0,-25.241631,143.48853,197.146)"
       spreadMethod="pad"
       id="linearGradient714"><stop
         style="stop-opacity:1;stop-color:#ff4f00"
         offset="0"
         id="stop710" /><stop
         style="stop-opacity:1;stop-color:#ff3d9d"
         offset="1"
         id="stop712" /></linearGradient><clipPath
       clipPathUnits="userSpaceOnUse"
       id="clipPath736"><path
         d="m 115.167,208.125 c 2.909,-9.351 12.675,-16.208 16.208,-15.792 v 0 c 3.532,0.415 17.87,15.584 17.87,17.454 v 0 c 0,1.871 -1.662,3.117 -3.324,2.702 v 0 c -1.663,-0.416 -12.676,-12.261 -13.715,-11.845 v 0 c -1.039,0.417 -7.48,11.221 -13.091,15.17 v 0 c 0,0 -0.472,0.114 -1.116,0.114 v 0 c -1.81,0 -4.978,-0.904 -2.832,-7.803"
         id="path734"
         inkscape:connector-curvature="0" /></clipPath><linearGradient
       x1="0"
       y1="0"
       x2="1"
       y2="0"
       gradientUnits="userSpaceOnUse"
       gradientTransform="matrix(-0.7076072,-45.642483,45.642483,-0.7076072,132.29352,239.79221)"
       spreadMethod="pad"
       id="linearGradient750"><stop
         style="stop-opacity:1;stop-color:#7f5eff"
         offset="0"
         id="stop742" /><stop
         style="stop-opacity:1;stop-color:#7f5eff"
         offset="0.30329118"
         id="stop744" /><stop
         style="stop-opacity:1;stop-color:#b391ff"
         offset="0.939976"
         id="stop746" /><stop
         style="stop-opacity:1;stop-color:#b391ff"
         offset="1"
         id="stop748" /></linearGradient><clipPath
       clipPathUnits="userSpaceOnUse"
       id="clipPath760"><path
         d="M 0,500 H 500 V 0 H 0 Z"
         id="path758"
         inkscape:connector-curvature="0" /></clipPath><clipPath
       clipPathUnits="userSpaceOnUse"
       id="clipPath776"><path
         d="M 149.177,264.207 H 196.42 V 168.475 H 149.177 Z"
         id="path774"
         inkscape:connector-curvature="0" /></clipPath><clipPath
       clipPathUnits="userSpaceOnUse"
       id="clipPath876"><path
         d="M 0,500 H 500 V 0 H 0 Z"
         id="path874"
         inkscape:connector-curvature="0" /></clipPath></defs><sodipodi:namedview
     pagecolor="#ffffff"
     bordercolor="#666666"
     borderopacity="1"
     objecttolerance="10"
     gridtolerance="10"
     guidetolerance="10"
     inkscape:pageopacity="0"
     inkscape:pageshadow="2"
     inkscape:window-width="1920"
     inkscape:window-height="1053"
     id="namedview4"
     showgrid="false"
     inkscape:zoom="1.0012632"
     inkscape:cx="511.34884"
     inkscape:cy="396.22615"
     inkscape:window-x="0"
     inkscape:window-y="27"
     inkscape:window-maximized="1"
     inkscape:current-layer="g10" /><g
     id="g10"
     inkscape:groupmode="layer"
     inkscape:label="494642-PHERZJ-463"
     transform="matrix(1.3333333,0,0,-1.3333333,0,666.66667)"><path
       d="M 0,0 H 500 V 500 H 0 Z"
       style="fill:#ffffff;fill-opacity:1;fill-rule:nonzero;stroke:none"
       id="path12"
       inkscape:connector-curvature="0" /><g
       id="g14"><g
         id="g16"
         clip-path="url(#clipPath20)"><g
           id="g22"><g
             id="g24" /><g
             id="g80"><g
               clip-path="url(#clipPath28)"
               id="g78"
               style="opacity:0.30999804"><g
                 id="g66"><g
                   clip-path="url(#clipPath32)"
                   id="g64"><g
                     id="g62"><g
                       id="g60"><path
                         d="M 500,0 V 188.081 C 473.021,182.487 447.392,172.762 424.441,156.957 405.43,143.865 388.067,124.844 386.66,101.803 385.324,79.948 398.497,59.932 402.105,38.335 404.298,25.212 402.953,12.438 399.357,0 Z"
                         style="fill:url(#linearGradient42);stroke:none"
                         id="path58"
                         inkscape:connector-curvature="0" /></g></g></g></g><g
                 id="g76"><g
                   clip-path="url(#clipPath46)"
                   id="g74"><g
                     id="g72"><g
                       id="g70"><path
                         d="M 51.895,43.713 C 35.767,54.819 18.312,62.914 0,68.691 V 0 H 87.62 C 82.279,17.921 67.659,32.857 51.895,43.713"
                         style="fill:url(#linearGradient56);stroke:none"
                         id="path68"
                         inkscape:connector-curvature="0" /></g></g></g></g></g></g></g></g></g><g
       id="g82"><g
         id="g84"
         clip-path="url(#clipPath88)"><g
           id="g90"><g
             id="g92" /><g
             id="g120"><g
               clip-path="url(#clipPath96)"
               id="g118"
               style="opacity:0.32000703"><g
                 id="g116"><g
                   clip-path="url(#clipPath100)"
                   id="g114"><g
                     id="g112"><g
                       id="g110"><path
                         d="m 220.229,146.569 c -2.657,-1.534 -2.666,-4.016 -0.031,-5.548 l 88.247,-51.283 c 2.64,-1.534 6.92,-1.534 9.578,0 l 20.69,9.686 c 2.652,1.531 2.671,4.014 0.031,5.548 l -88.247,51.284 c -2.635,1.531 -6.926,1.531 -9.578,0 z"
                         style="fill:url(#linearGradient106);stroke:none"
                         id="path108"
                         inkscape:connector-curvature="0" /></g></g></g></g></g></g></g><g
           id="g122"
           transform="translate(195.9302,360.8613)"><path
             d="M 0,0 0.006,-2.203 C 0.01,-3.501 1.417,-4.309 2.54,-3.657 l 10.39,6.028 c 0.522,0.303 0.842,0.861 0.841,1.464 L 13.765,6.038 C 13.761,7.336 12.354,8.144 11.231,7.493 L 0.84,1.464 C 0.318,1.162 -0.002,0.604 0,0"
             style="fill:#1ae5ff;fill-opacity:1;fill-rule:nonzero;stroke:none"
             id="path124"
             inkscape:connector-curvature="0" /></g><g
           id="g126"
           transform="translate(163.0615,330.936)"><path
             d="M 0,0 0.006,-2.208 C 0.01,-3.504 1.414,-4.312 2.537,-3.664 l 43.29,24.994 c 0.524,0.302 0.845,0.861 0.843,1.466 l -0.005,2.207 c -0.004,1.297 -1.409,2.105 -2.531,1.456 L 0.844,1.466 C 0.32,1.164 -0.002,0.604 0,0"
             style="fill:#1ae5ff;fill-opacity:1;fill-rule:nonzero;stroke:none"
             id="path128"
             inkscape:connector-curvature="0" /></g><g
           id="g130"><g
             id="g132" /><g
             id="g144"><g
               clip-path="url(#clipPath136)"
               id="g142"
               style="opacity:0.52999902"><g
                 transform="translate(180.9712,319.3066)"
                 id="g140"><path
                   d="M 0,0 0.006,-2.208 C 0.01,-3.504 1.415,-4.312 2.538,-3.664 l 25.441,14.689 c 0.524,0.302 0.846,0.861 0.844,1.466 l -0.006,2.207 c -0.004,1.297 -1.408,2.105 -2.531,1.457 L 0.844,1.466 C 0.32,1.164 -0.001,0.604 0,0"
                   style="fill:#1ae5ff;fill-opacity:1;fill-rule:nonzero;stroke:none"
                   id="path138"
                   inkscape:connector-curvature="0" /></g></g></g></g><g
           id="g146"
           transform="translate(169.8052,323.8447)"><path
             d="M 0,0 0.006,-2.208 C 0.01,-3.504 1.415,-4.312 2.537,-3.664 l 36.577,21.118 c 0.524,0.302 0.846,0.861 0.844,1.466 l -0.006,2.207 c -0.004,1.297 -1.408,2.105 -2.531,1.457 L 0.844,1.466 C 0.32,1.164 -0.001,0.604 0,0"
             style="fill:#1ae5ff;fill-opacity:1;fill-rule:nonzero;stroke:none"
             id="path148"
             inkscape:connector-curvature="0" /></g><g
           id="g150"><g
             id="g152" /><g
             id="g164"><g
               clip-path="url(#clipPath156)"
               id="g162"
               style="opacity:0.369995"><g
                 transform="translate(396.1641,327.4976)"
                 id="g160"><path
                   d="m 0,0 c 0.477,-0.275 0.862,-0.942 0.86,-1.491 l -0.042,-15 C 0.816,-17.039 0.429,-17.26 -0.048,-16.984 L -19.039,-6.02 c -0.478,0.276 -0.863,0.943 -0.861,1.491 l 0.042,15 c 0.002,0.549 0.389,0.77 0.867,0.494 z"
                   style="fill:#8ed2ff;fill-opacity:1;fill-rule:nonzero;stroke:none"
                   id="path158"
                   inkscape:connector-curvature="0" /></g></g></g></g><g
           id="g166"><g
             id="g168" /><g
             id="g180"><g
               clip-path="url(#clipPath172)"
               id="g178"
               style="opacity:0.47000104"><g
                 transform="translate(403.1396,300.8105)"
                 id="g176"><path
                   d="M 0,0 C 0.477,-0.275 0.862,-0.942 0.86,-1.491 L 0.817,-16.492 C 0.816,-17.039 0.429,-17.26 -0.048,-16.985 L -19.04,-6.02 c -0.478,0.275 -0.862,0.943 -0.86,1.49 l 0.042,15.001 c 0.002,0.549 0.389,0.769 0.867,0.494 z"
                   style="fill:#7974f5;fill-opacity:1;fill-rule:nonzero;stroke:none"
                   id="path174"
                   inkscape:connector-curvature="0" /></g></g></g></g><g
           id="g182"><g
             id="g184" /><g
             id="g196"><g
               clip-path="url(#clipPath188)"
               id="g194"
               style="opacity:0.369995"><g
                 transform="translate(209.981,286.6533)"
                 id="g192"><path
                   d="m 0,0 c 0.308,-0.178 0.557,-0.609 0.556,-0.963 l -0.028,-9.692 c -0.001,-0.354 -0.251,-0.496 -0.559,-0.319 l -12.27,7.085 c -0.309,0.178 -0.558,0.609 -0.557,0.963 l 0.027,9.691 c 10e-4,0.355 0.252,0.498 0.56,0.319 z"
                   style="fill:#8ed2ff;fill-opacity:1;fill-rule:nonzero;stroke:none"
                   id="path190"
                   inkscape:connector-curvature="0" /></g></g></g></g><g
           id="g198"><g
             id="g200" /><g
             id="g212"><g
               clip-path="url(#clipPath204)"
               id="g210"
               style="opacity:0.47000104"><g
                 transform="translate(214.4878,269.4106)"
                 id="g208"><path
                   d="m 0,0 c 0.308,-0.178 0.557,-0.609 0.556,-0.963 l -0.028,-9.692 c -0.001,-0.354 -0.251,-0.496 -0.559,-0.319 l -12.27,7.084 c -0.309,0.179 -0.558,0.61 -0.557,0.964 l 0.027,9.691 c 10e-4,0.355 0.252,0.498 0.56,0.319 z"
                   style="fill:#7974f5;fill-opacity:1;fill-rule:nonzero;stroke:none"
                   id="path206"
                   inkscape:connector-curvature="0" /></g></g></g></g></g></g><g
       id="g214"><g
         id="g216"
         clip-path="url(#clipPath220)"><g
           id="g222"><g
             id="g224"><path
               d="m 248.801,429.987 c -0.139,-0.001 -0.272,-0.015 -0.41,-0.02 v 0 c -0.106,-0.004 -0.211,-0.008 -0.317,-0.015 v 0 c -0.109,-0.007 -0.22,-0.006 -0.328,-0.016 v 0 c -0.4,-0.036 -0.79,-0.092 -1.173,-0.17 v 0 c -0.007,-0.001 -0.014,-0.003 -0.021,-0.005 v 0 c -0.086,-0.018 -0.164,-0.05 -0.249,-0.07 v 0 c -0.392,-0.089 -0.781,-0.184 -1.152,-0.316 v 0 c -0.043,-0.016 -0.085,-0.036 -0.128,-0.052 v 0 c -0.063,-0.023 -0.122,-0.051 -0.184,-0.075 v 0 c -0.462,-0.182 -0.911,-0.388 -1.336,-0.635 v 0 l -9.098,-5.287 c 0.426,0.247 0.875,0.453 1.337,0.635 v 0 c 0.061,0.025 0.121,0.051 0.183,0.075 v 0 c 0.412,0.153 0.843,0.269 1.281,0.369 v 0 c 0.084,0.02 0.163,0.051 0.248,0.068 v 0 c 0.492,0.1 1.002,0.159 1.522,0.192 v 0 c 0.105,0.007 0.211,0.012 0.318,0.015 v 0 c 0.504,0.019 1.018,0.013 1.546,-0.03 v 0 c 0.062,-0.006 0.126,-0.014 0.188,-0.019 v 0 c 0.551,-0.053 1.113,-0.138 1.687,-0.26 v 0 c 0.058,-0.012 0.117,-0.026 0.175,-0.039 v 0 c 0.587,-0.13 1.184,-0.297 1.791,-0.501 v 0 c 0.042,-0.014 0.084,-0.026 0.125,-0.041 v 0 c 0.635,-0.218 1.278,-0.475 1.932,-0.774 v 0 c 0.044,-0.02 0.088,-0.041 0.132,-0.061 v 0 c 0.662,-0.309 1.335,-0.653 2.015,-1.047 v 0 l 86.866,-50.151 c 0.688,-0.397 1.366,-0.831 2.036,-1.295 v 0 c 0.04,-0.027 0.079,-0.056 0.119,-0.084 v 0 c 0.624,-0.436 1.24,-0.901 1.847,-1.391 v 0 c 0.067,-0.055 0.136,-0.11 0.203,-0.166 v 0 c 0.586,-0.48 1.163,-0.985 1.73,-1.51 v 0 c 0.067,-0.063 0.135,-0.126 0.202,-0.189 v 0 c 0.574,-0.54 1.137,-1.103 1.687,-1.685 v 0 c 0.047,-0.05 0.094,-0.097 0.14,-0.147 v 0 c 0.588,-0.628 1.162,-1.276 1.719,-1.946 v 0 c 0.007,-0.009 0.013,-0.017 0.019,-0.024 v 0 c 0.572,-0.687 1.125,-1.396 1.661,-2.123 v 0 c 0,0 0,0 0.002,-10e-4 v 0 c 0.488,-0.664 0.958,-1.348 1.417,-2.041 v 0 c 0.284,-0.43 0.551,-0.872 0.823,-1.311 v 0 c 0.224,-0.365 0.458,-0.726 0.673,-1.097 v 0 c 0.103,-0.175 0.2,-0.355 0.299,-0.532 v 0 c 0.354,-0.626 0.7,-1.257 1.027,-1.896 v 0 c 0.035,-0.069 0.071,-0.138 0.106,-0.207 v 0 c 0.392,-0.778 0.764,-1.565 1.111,-2.358 v 0 c 0.017,-0.04 0.035,-0.081 0.052,-0.121 v 0 c 2.164,-4.976 3.423,-10.186 3.409,-15.006 v 0 l 9.098,5.287 c 0.012,4.272 -0.99,8.848 -2.721,13.297 v 0 l 0.015,0.009 c -0.129,0.33 -0.262,0.66 -0.398,0.988 v 0 c -0.099,0.238 -0.202,0.476 -0.305,0.712 v 0 c -0.018,0.041 -0.035,0.081 -0.053,0.122 v 0 c -0.019,0.045 -0.038,0.091 -0.058,0.136 v 0 c -0.145,0.329 -0.294,0.657 -0.447,0.982 v 0 c -0.169,0.36 -0.342,0.719 -0.521,1.075 v 0 c -0.027,0.055 -0.056,0.109 -0.084,0.165 v 0 c -0.035,0.069 -0.072,0.137 -0.107,0.206 v 0 c -0.144,0.283 -0.289,0.569 -0.439,0.85 v 0 c -0.189,0.354 -0.391,0.7 -0.589,1.05 v 0 c -0.099,0.175 -0.194,0.352 -0.296,0.527 v 0 c -0.04,0.069 -0.077,0.14 -0.117,0.21 v 0 c -0.178,0.302 -0.375,0.592 -0.56,0.892 v 0 c -0.27,0.438 -0.537,0.878 -0.82,1.306 v 0 c -0.045,0.069 -0.085,0.141 -0.131,0.209 v 0 c -0.416,0.622 -0.845,1.234 -1.287,1.834 v 0 c -0.001,0 -0.001,0 -0.001,0 v 0 c -0.296,0.402 -0.598,0.798 -0.905,1.188 v 0 c -0.248,0.315 -0.5,0.627 -0.756,0.935 v 0 c -0.006,0.007 -0.013,0.016 -0.018,0.023 v 0 c -0.004,0.004 -0.007,0.007 -0.01,0.012 v 0 c -0.26,0.31 -0.522,0.617 -0.787,0.92 v 0 c -0.26,0.297 -0.524,0.589 -0.791,0.876 v 0 c -0.042,0.047 -0.087,0.092 -0.131,0.138 v 0 c -0.047,0.05 -0.095,0.099 -0.142,0.149 v 0 c -0.186,0.197 -0.371,0.394 -0.559,0.585 v 0 c -0.283,0.288 -0.569,0.571 -0.857,0.848 v 0 c -0.089,0.086 -0.179,0.167 -0.27,0.25 v 0 c -0.067,0.064 -0.135,0.127 -0.204,0.19 v 0 c -0.14,0.131 -0.279,0.265 -0.421,0.393 v 0 c -0.299,0.269 -0.6,0.531 -0.905,0.789 v 0 c -0.133,0.112 -0.269,0.219 -0.403,0.328 v 0 c -0.066,0.056 -0.135,0.112 -0.202,0.166 v 0 c -0.101,0.082 -0.2,0.166 -0.3,0.245 v 0 c -0.296,0.234 -0.593,0.461 -0.893,0.681 v 0 c -0.217,0.16 -0.435,0.312 -0.654,0.465 v 0 c -0.04,0.028 -0.079,0.057 -0.119,0.084 v 0 c -0.038,0.026 -0.075,0.054 -0.111,0.08 v 0 c -0.288,0.196 -0.575,0.387 -0.864,0.572 v 0 c -0.286,0.181 -0.573,0.357 -0.863,0.526 v 0 c -0.065,0.039 -0.132,0.078 -0.199,0.117 v 0 l -86.866,50.152 c -0.217,0.125 -0.431,0.245 -0.646,0.362 v 0 c -0.28,0.151 -0.558,0.295 -0.834,0.432 v 0 c -0.179,0.089 -0.357,0.169 -0.535,0.252 v 0 c -0.044,0.02 -0.087,0.042 -0.131,0.061 v 0 c -0.051,0.024 -0.106,0.051 -0.158,0.075 v 0 c -0.272,0.122 -0.544,0.237 -0.813,0.345 v 0 c -0.276,0.111 -0.549,0.213 -0.822,0.309 v 0 c -0.047,0.016 -0.092,0.029 -0.139,0.045 v 0 c -0.042,0.015 -0.082,0.027 -0.125,0.041 v 0 c -0.184,0.062 -0.369,0.125 -0.55,0.18 v 0 c -0.283,0.086 -0.564,0.163 -0.841,0.232 v 0 c -0.135,0.034 -0.266,0.059 -0.4,0.09 v 0 c -0.058,0.012 -0.117,0.026 -0.175,0.038 v 0 c -0.087,0.018 -0.174,0.042 -0.259,0.058 v 0 c -0.301,0.058 -0.597,0.107 -0.891,0.146 v 0 c -0.181,0.025 -0.359,0.038 -0.537,0.055 v 0 c -0.063,0.007 -0.126,0.015 -0.189,0.019 v 0 c -0.059,0.006 -0.12,0.015 -0.18,0.019 v 0 c -0.309,0.022 -0.615,0.032 -0.916,0.032 v 0 c -0.014,0 -0.027,0 -0.04,0"
               style="fill:url(#linearGradient234);stroke:none"
               id="path236"
               inkscape:connector-curvature="0" /></g></g></g></g><g
       id="g238"><g
         id="g240"
         clip-path="url(#clipPath244)"><g
           id="g246"><g
             id="g248"><path
               d="m 353.327,349.933 c 0.129,-0.332 0.253,-0.664 0.374,-0.997 v 0 c 0.125,-0.345 0.246,-0.691 0.362,-1.037 v 0 c 0.117,-0.351 0.229,-0.702 0.337,-1.052 v 0 c 0.11,-0.358 0.214,-0.717 0.314,-1.075 v 0 c 0.099,-0.36 0.194,-0.72 0.284,-1.079 v 0 c 0.088,-0.356 0.171,-0.711 0.248,-1.067 v 0 c 0.078,-0.353 0.15,-0.708 0.216,-1.061 v 0 c 0.064,-0.344 0.123,-0.687 0.177,-1.028 v 0 c 0.054,-0.342 0.102,-0.683 0.145,-1.022 v 0 c 0.043,-0.333 0.081,-0.665 0.111,-0.996 v 0 c 0.032,-0.332 0.058,-0.662 0.079,-0.99 v 0 c 0.021,-0.33 0.036,-0.658 0.046,-0.984 v 0 c 0.009,-0.308 0.015,-0.614 0.013,-0.918 v 0 l -0.591,-208.43 c -0.002,-0.772 -0.041,-1.515 -0.107,-2.231 v 0 c -0.006,-0.065 -0.012,-0.128 -0.02,-0.193 v 0 c -0.066,-0.657 -0.159,-1.289 -0.277,-1.897 v 0 c -0.016,-0.081 -0.031,-0.162 -0.047,-0.242 v 0 c -0.123,-0.588 -0.27,-1.151 -0.439,-1.69 v 0 c -0.03,-0.102 -0.065,-0.2 -0.099,-0.299 v 0 c -0.169,-0.509 -0.357,-0.995 -0.569,-1.455 v 0 c -0.022,-0.051 -0.04,-0.105 -0.063,-0.155 v 0 c -0.248,-0.525 -0.522,-1.019 -0.818,-1.482 v 0 c -0.041,-0.063 -0.088,-0.117 -0.129,-0.179 v 0 c -0.247,-0.367 -0.509,-0.713 -0.786,-1.038 v 0 c -0.102,-0.119 -0.208,-0.232 -0.314,-0.345 v 0 c -0.244,-0.262 -0.498,-0.507 -0.762,-0.737 v 0 c -0.11,-0.096 -0.218,-0.195 -0.332,-0.286 v 0 c -0.374,-0.3 -0.763,-0.579 -1.175,-0.819 v 0 l 9.097,5.286 c 0.412,0.241 0.801,0.521 1.177,0.82 v 0 c 0.114,0.091 0.22,0.189 0.331,0.286 v 0 c 0.264,0.231 0.518,0.476 0.762,0.738 v 0 c 0.105,0.113 0.212,0.225 0.313,0.344 v 0 c 0.277,0.325 0.54,0.671 0.787,1.038 v 0 c 0.04,0.063 0.087,0.116 0.129,0.18 v 0 c 0.009,0.013 0.019,0.026 0.027,0.04 v 0 c 0.28,0.436 0.536,0.9 0.769,1.393 v 0 c 0.007,0.015 0.013,0.032 0.021,0.047 v 0 c 0.023,0.051 0.043,0.107 0.065,0.158 v 0 c 0.142,0.309 0.279,0.622 0.402,0.95 v 0 c 0.06,0.163 0.11,0.335 0.166,0.502 v 0 c 0.034,0.1 0.068,0.199 0.1,0.3 v 0 c 0.029,0.091 0.061,0.178 0.089,0.27 v 0 c 0.099,0.337 0.189,0.682 0.27,1.038 v 0 c 0.029,0.124 0.052,0.255 0.078,0.381 v 0 c 0.017,0.081 0.032,0.162 0.048,0.244 v 0 c 0.024,0.124 0.053,0.244 0.075,0.37 v 0 c 0.055,0.318 0.104,0.642 0.144,0.972 v 0 c 0.023,0.181 0.04,0.369 0.058,0.555 v 0 c 0.007,0.064 0.014,0.127 0.02,0.192 v 0 c 0.008,0.078 0.018,0.153 0.024,0.232 v 0 c 0.025,0.314 0.046,0.633 0.059,0.958 v 0 c 0.015,0.322 0.022,0.65 0.023,0.983 v 0 c 0.001,0.02 0.001,0.039 0.001,0.058 v 0 l 0.591,208.43 c 0.001,0.305 -0.004,0.611 -0.013,0.918 v 0 c -0.01,0.326 -0.025,0.654 -0.046,0.984 v 0 c -0.02,0.329 -0.046,0.658 -0.079,0.989 v 0 c -0.031,0.332 -0.068,0.664 -0.11,0.997 v 0 c -0.043,0.34 -0.092,0.68 -0.145,1.022 v 0 c -0.055,0.342 -0.114,0.685 -0.179,1.029 v 0 c -0.066,0.353 -0.138,0.706 -0.216,1.061 v 0 c -0.076,0.354 -0.16,0.71 -0.247,1.065 v 0 c -0.09,0.36 -0.184,0.719 -0.285,1.08 v 0 c -0.099,0.359 -0.204,0.717 -0.313,1.075 v 0 c -0.108,0.351 -0.221,0.702 -0.338,1.052 v 0 c -0.115,0.347 -0.236,0.692 -0.361,1.037 v 0 c -0.121,0.333 -0.246,0.665 -0.374,0.997 v 0 z"
               style="fill:url(#linearGradient258);stroke:none"
               id="path260"
               inkscape:connector-curvature="0" /></g></g></g></g><g
       id="g262"><g
         id="g264"
         clip-path="url(#clipPath268)"><g
           id="g270"><g
             id="g272"><path
               d="m 228.469,410.276 -0.59,-208.43 c -0.037,-12.908 9.049,-28.645 20.282,-35.13 v 0 l 86.867,-50.152 c 11.233,-6.486 20.377,-1.275 20.414,11.633 v 0 l 0.591,208.429 c 0.037,12.918 -9.049,28.645 -20.282,35.131 v 0 l -86.866,50.151 c -3.28,1.894 -6.381,2.792 -9.13,2.791 v 0 c -6.667,0 -11.259,-5.278 -11.286,-14.423"
               style="fill:url(#linearGradient282);stroke:none"
               id="path284"
               inkscape:connector-curvature="0" /></g></g></g></g><g
       id="g286"><g
         id="g288"
         clip-path="url(#clipPath292)"><g
           id="g294"><g
             id="g296"><path
               d="m 278.843,381.735 c -0.004,-1.572 1.097,-3.478 2.456,-4.263 v 0 l 22.402,-12.933 c 1.359,-0.786 2.467,-0.154 2.472,1.418 v 0 c 0.003,1.563 -1.096,3.47 -2.457,4.253 v 0 l -22.4,12.934 c -0.397,0.229 -0.772,0.338 -1.105,0.338 v 0 c -0.807,0 -1.364,-0.64 -1.368,-1.747"
               style="fill:url(#linearGradient306);stroke:none"
               id="path308"
               inkscape:connector-curvature="0" /></g></g></g></g><g
       id="g310"><g
         id="g312"
         clip-path="url(#clipPath316)"><g
           id="g318"><g
             id="g320"><path
               d="m 285.27,167.851 c -0.011,-4.216 2.953,-9.351 6.622,-11.469 v 0 c 3.666,-2.118 6.651,-0.417 6.664,3.797 v 0 c 0.012,4.216 -2.954,9.351 -6.621,11.469 v 0 c -1.071,0.618 -2.083,0.911 -2.98,0.911 v 0 c -2.177,0 -3.676,-1.724 -3.685,-4.708"
               style="fill:url(#linearGradient330);stroke:none"
               id="path332"
               inkscape:connector-curvature="0" /></g></g></g></g><g
       id="g334"><g
         id="g336"
         clip-path="url(#clipPath340)"><g
           id="g342"
           transform="translate(347.1143,326.8008)"><path
             d="M 0,0 C 1.129,-0.652 2.041,-2.231 2.037,-3.529 L 1.543,-177.686 c -0.004,-1.296 -0.921,-1.82 -2.051,-1.168 l -109.299,63.104 c -1.129,0.652 -2.041,2.231 -2.037,3.529 l 0.493,174.157 c 0.004,1.297 0.922,1.82 2.051,1.168 z"
             style="fill:#f9fbfc;fill-opacity:1;fill-rule:nonzero;stroke:none"
             id="path344"
             inkscape:connector-curvature="0" /></g><g
           id="g346"
           transform="translate(360.7998,266.3813)"><path
             d="m 0,0 v 0 c -0.713,0 -1.291,0.578 -1.291,1.291 v 38.725 c 0,0.713 0.578,1.291 1.291,1.291 0.713,0 1.291,-0.578 1.291,-1.291 V 1.291 C 1.291,0.578 0.713,0 0,0"
             style="fill:#f9fbfc;fill-opacity:1;fill-rule:nonzero;stroke:none"
             id="path348"
             inkscape:connector-curvature="0" /></g><g
           id="g350"
           transform="translate(360.7998,218.1904)"><path
             d="m 0,0 v 0 c -0.713,0 -1.291,0.577 -1.291,1.29 v 38.726 c 0,0.713 0.578,1.291 1.291,1.291 0.713,0 1.291,-0.578 1.291,-1.291 V 1.29 C 1.291,0.577 0.713,0 0,0"
             style="fill:#f9fbfc;fill-opacity:1;fill-rule:nonzero;stroke:none"
             id="path352"
             inkscape:connector-curvature="0" /></g><g
           id="g354"
           transform="translate(360.7998,158.9727)"><path
             d="m 0,0 v 0 c -0.713,0 -1.291,0.578 -1.291,1.291 v 20.062 c 0,0.712 0.578,1.291 1.291,1.291 0.713,0 1.291,-0.579 1.291,-1.291 V 1.291 C 1.291,0.578 0.713,0 0,0"
             style="fill:#113c7a;fill-opacity:1;fill-rule:nonzero;stroke:none"
             id="path356"
             inkscape:connector-curvature="0" /></g><g
           id="g358"
           transform="translate(291.1885,314.6108)"><path
             d="m 0,0 c 5.592,-3.229 10.121,-11.023 10.177,-17.471 0,-0.052 0.002,-0.106 0.001,-0.158 -0.235,-0.094 -4.694,-1.871 -10.365,1.289 -0.066,0.036 -0.132,0.074 -0.198,0.112 -4.433,2.56 -8.064,7.636 -9.359,9.596 -0.33,0.501 -0.5,0.784 -0.509,0.799 C -10.234,0.644 -5.646,3.259 0,0"
             style="fill:#ffffff;fill-opacity:1;fill-rule:nonzero;stroke:none"
             id="path360"
             inkscape:connector-curvature="0" /></g><g
           id="g362"
           transform="translate(337.2002,258.4316)"><path
             d="M 0,0 C 1.294,-0.747 2.337,-2.554 2.333,-4.031 L 2.305,-13.852 C 2.301,-15.339 1.25,-15.938 -0.044,-15.19 l -89.824,51.86 c -1.294,0.747 -2.338,2.555 -2.333,4.041 l 0.028,9.821 c 0.004,1.477 1.054,2.075 2.348,1.328 z"
             style="fill:#cfe3ff;fill-opacity:1;fill-rule:nonzero;stroke:none"
             id="path364"
             inkscape:connector-curvature="0" /></g></g></g><g
       id="g366"><g
         id="g368"
         clip-path="url(#clipPath372)"><g
           id="g374"><g
             id="g376"><path
               d="m 275.964,335.374 c -0.119,-0.212 -0.231,-0.433 -0.338,-0.659 v 0 c -0.534,-1.135 -0.921,-2.446 -1.138,-3.918 v 0 c -0.129,-0.883 -0.198,-1.825 -0.201,-2.824 v 0 c -10e-4,-0.297 0.006,-0.596 0.017,-0.897 v 0 c 0.002,-0.062 0.004,-0.125 0.006,-0.187 v 0 c 0.014,-0.293 0.032,-0.588 0.054,-0.884 v 0 c 0.005,-0.051 0.01,-0.102 0.014,-0.154 v 0 c 0.024,-0.282 0.053,-0.566 0.098,-0.953 v 0 c 0.037,-0.302 0.08,-0.606 0.127,-0.91 v 0 c 0.01,-0.065 0.021,-0.13 0.032,-0.196 v 0 c 0.049,-0.304 0.103,-0.609 0.183,-1.015 v 0 c 0.056,-0.289 0.118,-0.577 0.184,-0.867 v 0 c 0.013,-0.054 0.024,-0.108 0.037,-0.162 v 0 c 0.071,-0.304 0.148,-0.608 0.228,-0.912 v 0 c 0.016,-0.063 0.033,-0.126 0.049,-0.187 v 0 c 0.17,-0.628 0.359,-1.256 0.568,-1.883 v 0 c 0.02,-0.062 0.04,-0.123 0.061,-0.184 v 0 c 0.104,-0.306 0.21,-0.612 0.323,-0.917 v 0 c 0.018,-0.049 0.036,-0.096 0.054,-0.144 v 0 c 0.108,-0.291 0.219,-0.58 0.378,-0.975 v 0 c 0.122,-0.305 0.25,-0.609 0.382,-0.912 v 0 c 0.027,-0.063 0.054,-0.126 0.082,-0.189 v 0 c 0.134,-0.304 0.271,-0.607 0.451,-0.989 v 0 c 0.135,-0.286 0.274,-0.57 0.417,-0.853 v 0 c 0.026,-0.054 0.053,-0.108 0.08,-0.161 v 0 c 0.149,-0.294 0.302,-0.587 0.459,-0.877 v 0 c 0.03,-0.057 0.061,-0.113 0.092,-0.169 v 0 c 0.158,-0.291 0.319,-0.581 0.501,-0.896 v 0 c 0.168,-0.293 0.342,-0.582 0.516,-0.87 v 0 c 0.038,-0.059 0.074,-0.119 0.111,-0.179 v 0 c 0.173,-0.279 0.347,-0.557 0.527,-0.831 v 0 c 0.03,-0.047 0.062,-0.093 0.092,-0.14 v 0 c 0.169,-0.257 0.341,-0.511 0.593,-0.877 v 0 c 0.13,-0.188 0.265,-0.372 0.397,-0.556 v 0 c -0.3,0.459 -0.457,0.717 -0.464,0.73 v 0 c 0.018,6.479 4.607,9.093 10.253,5.834 v 0 c 5.589,-3.227 10.117,-11.018 10.176,-17.464 v 0 c 0.094,0.03 0.19,0.057 0.339,0.111 v 0 c 0.182,0.068 0.358,0.143 0.534,0.223 v 0 l 0.105,0.048 c 0.17,0.081 0.338,0.167 0.501,0.259 v 0 c 0.032,0.017 0.064,0.036 0.094,0.054 v 0 c 0.169,0.098 0.333,0.2 0.528,0.333 v 0 c 0.156,0.108 0.308,0.223 0.457,0.342 v 0 c 0.023,0.018 0.047,0.036 0.07,0.055 v 0 c 0.148,0.122 0.293,0.25 0.435,0.384 v 0 c 0.027,0.025 0.054,0.05 0.081,0.076 v 0 c 0.14,0.136 0.277,0.277 0.41,0.424 v 0 c 0.02,0.023 0.039,0.045 0.059,0.067 v 0 c 0.136,0.155 0.27,0.315 0.403,0.488 v 0 c 0.128,0.168 0.251,0.343 0.37,0.523 v 0 c 0.019,0.027 0.037,0.054 0.055,0.081 v 0 c 0.113,0.174 0.22,0.353 0.324,0.538 v 0 c 0.02,0.035 0.04,0.071 0.059,0.108 v 0 c 0.104,0.187 0.202,0.378 0.334,0.656 v 0 c 0.09,0.195 0.177,0.397 0.284,0.663 v 0 c 0.085,0.213 0.161,0.434 0.236,0.658 v 0 c 0.014,0.04 0.027,0.08 0.04,0.12 v 0 c 0.072,0.223 0.136,0.451 0.199,0.683 v 0 c 0.011,0.04 0.02,0.082 0.031,0.123 v 0 c 0.061,0.239 0.119,0.483 0.182,0.8 v 0 c 0.048,0.245 0.092,0.495 0.146,0.846 v 0 c 0.037,0.258 0.069,0.522 0.095,0.79 v 0 c 0.005,0.052 0.011,0.104 0.016,0.156 v 0 c 0.025,0.269 0.044,0.541 0.059,0.819 v 0 c 0.002,0.044 0.003,0.089 0.005,0.134 v 0 c 0.013,0.294 0.022,0.59 0.023,0.894 v 0 c 0.002,0.998 -0.061,2.016 -0.186,3.046 v 0 c -0.208,1.717 -0.586,3.47 -1.112,5.218 v 0 c -0.211,0.698 -0.446,1.396 -0.702,2.092 v 0 c -0.175,0.472 -0.364,0.942 -0.558,1.41 v 0 c -2.958,7.123 -8.192,13.743 -14.168,17.193 v 0 c -2.704,1.562 -5.261,2.302 -7.526,2.301 v 0 c -3.313,0 -6.003,-1.582 -7.623,-4.489 m 15.46,-18.993 c -3.437,1.984 -6.221,6.808 -6.21,10.756 v 0 c 0.011,3.959 2.814,5.548 6.251,3.564 v 0 c 3.445,-1.99 6.222,-6.799 6.211,-10.757 v 0 c -0.008,-2.798 -1.413,-4.418 -3.457,-4.418 v 0 c -0.841,0 -1.79,0.275 -2.795,0.855"
               style="fill:url(#linearGradient386);stroke:none"
               id="path388"
               inkscape:connector-curvature="0" /></g></g></g></g><g
       id="g390"><g
         id="g392"
         clip-path="url(#clipPath396)"><g
           id="g398"
           transform="translate(291.4648,330.6997)"><path
             d="m 0,0 c 3.445,-1.989 6.222,-6.798 6.211,-10.756 -0.012,-3.95 -2.806,-5.552 -6.251,-3.563 -3.437,1.985 -6.222,6.808 -6.21,10.757 C -6.239,0.396 -3.437,1.984 0,0"
             style="fill:#ffffff;fill-opacity:1;fill-rule:nonzero;stroke:none"
             id="path400"
             inkscape:connector-curvature="0" /></g><g
           id="g402"
           transform="translate(337.1396,237.0576)"><path
             d="m 0,0 c 1.294,-0.747 2.337,-2.554 2.333,-4.041 l -0.028,-9.82 C 2.301,-15.349 1.25,-15.938 -0.044,-15.19 l -89.824,51.86 c -1.294,0.747 -2.338,2.545 -2.333,4.032 l 0.028,9.82 c 0.004,1.487 1.054,2.085 2.348,1.338 z"
             style="fill:#cfe3ff;fill-opacity:1;fill-rule:nonzero;stroke:none"
             id="path404"
             inkscape:connector-curvature="0" /></g></g></g><g
       id="g406"><g
         id="g408"
         clip-path="url(#clipPath412)"><g
           id="g414"><g
             id="g416"><path
               d="m 267.451,234.748 -0.006,-2.254 c -0.009,-3.522 2.471,-7.809 5.537,-9.58 v 0 l 29.051,-16.773 c 3.067,-1.77 5.555,-0.351 5.565,3.171 v 0 l 0.007,2.255 c 0.01,3.513 -2.464,7.805 -5.529,9.575 v 0 l -29.052,16.773 c -0.895,0.517 -1.741,0.761 -2.491,0.761 v 0 c -1.82,0 -3.074,-1.44 -3.082,-3.928"
               style="fill:url(#linearGradient422);stroke:none"
               id="path424"
               inkscape:connector-curvature="0" /></g></g></g></g><g
       id="g426"><g
         id="g428"
         clip-path="url(#clipPath432)"><g
           id="g434"><g
             id="g436" /><g
             id="g464"><g
               clip-path="url(#clipPath440)"
               id="g462"
               style="opacity:0.32000703"><g
                 id="g460"><g
                   clip-path="url(#clipPath444)"
                   id="g458"><g
                     id="g456"><g
                       id="g454"><path
                         d="m 272.435,84.772 c 0,-10.833 -14.78,-19.615 -33.012,-19.615 -18.231,0 -33.011,8.782 -33.011,19.615 0,10.833 14.78,19.616 33.011,19.616 18.232,0 33.012,-8.783 33.012,-19.616"
                         style="fill:url(#linearGradient450);stroke:none"
                         id="path452"
                         inkscape:connector-curvature="0" /></g></g></g></g></g></g></g><g
           id="g466"
           transform="translate(272.9355,218.0684)"><path
             d="M 0,0 C 0,0 1.972,1.314 2.465,1.972 2.957,2.629 3.614,6.408 2.957,6.572 2.3,6.736 1.808,4.108 1.808,4.108 c 0,0 -0.165,6.901 -0.987,7.887 C 0,12.98 -2.629,8.052 -2.793,7.229 -2.958,6.408 -3.615,2.958 -3.615,2.958 -3.615,2.958 -2.629,0 0,0"
             style="fill:#ff9d6f;fill-opacity:1;fill-rule:nonzero;stroke:none"
             id="path468"
             inkscape:connector-curvature="0" /></g><g
           id="g470"
           transform="translate(222.7158,198.2568)"><path
             d="m 0,0 c 0,0 -5.152,-5.163 -1.537,-11.406 3.615,-6.244 28.261,9.201 30.89,11.501 2.628,2.301 19.88,17.745 20.867,19.717 0.985,1.971 -1.151,3.943 -3.78,3.615 C 43.812,23.098 33.296,11.925 25.081,6.667 25.081,6.667 5.48,2.206 0,0"
             style="fill:#113c7a;fill-opacity:1;fill-rule:nonzero;stroke:none"
             id="path472"
             inkscape:connector-curvature="0" /></g><g
           id="g474"
           transform="translate(225.7354,88.9971)"><path
             d="m 0,0 c 0,0 -0.424,-3.11 0.141,-4.383 0.566,-1.132 2.828,-1.979 4.383,-0.848 1.556,1.13 4.242,3.959 4.242,3.959 0,0 4.525,2.403 4.948,3.675 0.425,1.273 -1.131,2.404 -2.403,2.121 C 10.039,4.241 6.362,1.979 4.666,1.979 2.969,1.979 0.565,1.556 0,0"
             style="fill:#113c7a;fill-opacity:1;fill-rule:nonzero;stroke:none"
             id="path476"
             inkscape:connector-curvature="0" /></g></g></g><g
       id="g478"><g
         id="g480"
         clip-path="url(#clipPath484)"><g
           id="g486"><g
             id="g488"><path
               d="m 225.524,88.011 c 0.494,-1.892 5.627,-2.979 6.578,0.027 v 0 c 0.604,1.907 2.094,62.343 2.094,62.343 v 0 l -13.122,4.828 c 0,0 3.957,-65.305 4.45,-67.198"
               style="fill:url(#linearGradient494);stroke:none"
               id="path496"
               inkscape:connector-curvature="0" /></g></g></g></g><g
       id="g498"><g
         id="g500"
         clip-path="url(#clipPath504)"><g
           id="g506"
           transform="translate(238.8208,85.1113)"><path
             d="m 0,0 c -0.222,-0.191 -0.344,-0.469 -0.347,-0.762 -0.008,-0.897 0.033,-2.899 0.541,-3.678 0.664,-1.02 2.741,-2.099 4.913,-0.918 1.832,0.994 7.469,5.208 8.613,6.14 0.695,0.566 1.003,1.266 1.139,1.802 C 14.982,3.067 14.736,3.566 14.28,3.769 13.482,4.125 12.115,4.568 10.893,4.158 9.026,3.53 6.675,1.509 4.133,1.617 2.222,1.699 0.659,0.567 0,0"
             style="fill:#113c7a;fill-opacity:1;fill-rule:nonzero;stroke:none"
             id="path508"
             inkscape:connector-curvature="0" /></g></g></g><g
       id="g510"><g
         id="g512"
         clip-path="url(#clipPath516)"><g
           id="g518"><g
             id="g520"><path
               d="m 241.03,157.176 c -5.708,0.308 -14.545,0.064 -14.855,-4.366 v 0 c -0.459,-6.558 2.616,-11.237 5.582,-14.422 v 0 c 2.192,-2.352 3.651,-6.852 4.263,-9.045 v 0 c 0.52,-17.321 1.667,-41.744 2.385,-44.082 v 0 c 1.153,-3.766 6.834,-3.596 7.091,0.071 v 0 c 1.15,12.392 2.058,69.172 2.058,69.172 v 0 c -0.213,2.021 -2.069,3.026 -4.238,3.026 v 0 c -0.743,0 -1.523,-0.118 -2.286,-0.354"
               style="fill:url(#linearGradient526);stroke:none"
               id="path528"
               inkscape:connector-curvature="0" /></g></g></g></g><g
       id="g530"><g
         id="g532"
         clip-path="url(#clipPath536)"><g
           id="g538"
           transform="translate(247.5693,152.459)"><path
             d="m 0,0 c -0.67,-3.351 -10.221,-5.026 -15.806,-4.133 -5.585,0.894 -11.6,3.633 -11.401,10.11 0,0 1.061,15.481 0.636,18.238 -0.424,2.758 -1.484,7.636 -1.484,12.725 0,5.09 3.201,8.858 3.201,8.858 0,0 3.128,3.575 12.958,1.564 0,0 8.008,-1.745 11.694,-7.665 0,0 2.545,-6.504 1.697,-20.077 C 0.646,6.047 0,0 0,0"
             style="fill:#113c7a;fill-opacity:1;fill-rule:nonzero;stroke:none"
             id="path540"
             inkscape:connector-curvature="0" /></g><g
           id="g542"
           transform="translate(227.9976,207.002)"><path
             d="m 0,0 c 0,0 0.848,-4.948 0,-7.211 -0.142,-1.131 4.807,-4.948 9.19,-3.959 2.545,0.566 2.404,1.839 2.404,1.839 0,0 -2.121,3.534 -1.838,6.928 C 10.038,0.99 2.969,0.707 0,0"
             style="fill:#ff7c40;fill-opacity:1;fill-rule:nonzero;stroke:none"
             id="path544"
             inkscape:connector-curvature="0" /></g><g
           id="g546"
           transform="translate(244.5396,216.9697)"><path
             d="m 0,0 c 0,-6.442 -5.222,-11.664 -11.664,-11.664 -6.442,0 -11.665,5.222 -11.665,11.664 0,6.442 5.223,11.665 11.665,11.665 C -5.222,11.665 0,6.442 0,0"
             style="fill:#ff9d6f;fill-opacity:1;fill-rule:nonzero;stroke:none"
             id="path548"
             inkscape:connector-curvature="0" /></g><g
           id="g550"
           transform="translate(244.5396,216.1924)"><path
             d="m 0,0 c 0,0 0.142,-11.685 -2.403,-14.043 -2.545,-2.358 -6.452,2.208 -12.7,3.672 -6.247,1.604 5.065,13.754 5.065,13.754 z"
             style="fill:#ff9d6f;fill-opacity:1;fill-rule:nonzero;stroke:none"
             id="path552"
             inkscape:connector-curvature="0" /></g><g
           id="g554"
           transform="translate(270.4297,198.9268)"><path
             d="m 0,0 c 0,0 -1.109,4.56 -0.739,4.93 0.369,0.369 1.848,-1.603 1.848,-1.603 0,0 0.74,4.683 1.356,5.176 C 3.081,8.996 5.546,6.531 5.915,5.176 6.285,3.82 4.437,-1.602 3.697,-1.726 2.958,-1.849 0.37,-2.218 0,0"
             style="fill:#ff9d6f;fill-opacity:1;fill-rule:nonzero;stroke:none"
             id="path556"
             inkscape:connector-curvature="0" /></g><g
           id="g558"
           transform="translate(243.9355,193.5049)"><path
             d="m 0,0 c 0,0 -5.176,-2.465 -2.958,-8.873 2.218,-6.408 18.731,-8.872 20.703,-6.9 1.972,1.971 10.598,12.076 13.063,19.716 0,0 -0.987,2.957 -4.93,1.725 0,0 -9.365,-11.83 -10.844,-13.063 C 13.555,-8.626 2.464,0.493 0,0"
             style="fill:#113c7a;fill-opacity:1;fill-rule:nonzero;stroke:none"
             id="path560"
             inkscape:connector-curvature="0" /></g><g
           id="g562"
           transform="translate(222.8936,225.8584)"><path
             d="m 0,0 c 0,0 3.635,4.442 9.895,4.847 6.259,0.403 9.289,-1.616 11.712,-1.413 2.423,0.201 4.644,-1.819 3.836,-4.847 -0.807,-3.029 -2.625,-6.059 -6.663,-6.059 -4.039,0 -5.049,0.607 -5.049,0.607 0,0 3.231,-1.414 3.635,-4.241 0.404,-2.828 0.404,-7.068 0.404,-7.068 h -1.01 c 0,0 -0.807,4.645 -2.423,4.645 -1.615,0 -1.615,-5.049 -0.202,-5.857 l 1.414,-0.807 c 0,0 -2.712,-5.025 -4.183,-5.239 -1.471,-0.214 -6.318,3.421 -6.318,3.421 0,0 -8.077,3.837 -8.885,10.097 C -4.645,-5.654 0,0 0,0"
             style="fill:#843837;fill-opacity:1;fill-rule:nonzero;stroke:none"
             id="path564"
             inkscape:connector-curvature="0" /></g><g
           id="g566"><g
             id="g568" /><g
             id="g596"><g
               clip-path="url(#clipPath572)"
               id="g594"
               style="opacity:0.32000703"><g
                 id="g592"><g
                   clip-path="url(#clipPath576)"
                   id="g590"><g
                     id="g588"><g
                       id="g586"><path
                         d="m 168.359,117.273 c 0,-10.833 -14.779,-19.615 -33.01,-19.615 -18.232,0 -33.012,8.782 -33.012,19.615 0,10.833 14.78,19.616 33.012,19.616 18.231,0 33.01,-8.783 33.01,-19.616"
                         style="fill:url(#linearGradient582);stroke:none"
                         id="path584"
                         inkscape:connector-curvature="0" /></g></g></g></g></g></g></g><g
           id="g598"
           transform="translate(118.6274,170.9209)"><path
             d="m 0,0 c 0,0 2.218,-14.048 4.066,-21.812 0,0 0.371,-12.938 0.74,-17.374 0.37,-4.436 1.479,-14.047 1.479,-14.047 0,0 1.294,-1.11 2.772,-0.371 0,0 1.849,27.542 2.218,31.978 0.37,4.436 1.664,24.398 1.664,24.398 C 12.939,2.772 8.688,6.654 0,0"
             style="fill:#f5b697;fill-opacity:1;fill-rule:nonzero;stroke:none"
             id="path600"
             inkscape:connector-curvature="0" /></g><g
           id="g602"
           transform="translate(132.4907,176.4658)"><path
             d="m 0,0 c 0,0 2.218,-14.048 4.066,-21.811 0,0 0.37,-12.939 0.74,-17.375 0.369,-4.436 1.478,-14.047 1.478,-14.047 0,0 1.294,-1.11 2.773,-0.371 0,0 1.848,27.542 2.218,31.978 0.37,4.437 0.555,24.214 0.555,24.214 C 11.83,2.588 8.688,6.654 0,0"
             style="fill:#f5b697;fill-opacity:1;fill-rule:nonzero;stroke:none"
             id="path604"
             inkscape:connector-curvature="0" /></g><g
           id="g606"
           transform="translate(121.4004,189.8975)"><path
             d="m 0,0 c 0,0 -5.237,-5.729 -2.218,-25.138 0.184,-2.772 2.033,-9.92 2.033,-9.92 0,0 6.839,-1.109 14.972,2.034 8.133,3.142 8.317,4.805 8.317,4.805 0,0 0.37,24.338 -1.478,30.622 C 19.778,8.688 0,0 0,0"
             style="fill:#113c7a;fill-opacity:1;fill-rule:nonzero;stroke:none"
             id="path608"
             inkscape:connector-curvature="0" /></g><g
           id="g610"
           transform="translate(141.6401,124.1563)"><path
             d="m 0,0 c 0,0 -0.185,-1.386 1.294,-2.495 1.478,-1.109 4.251,-3.143 4.713,-4.344 0,-0.924 -3.512,0.093 -5.083,0.924 -1.571,0.832 -3.049,2.773 -3.049,2.773 l 0.092,-0.832 c 0,0 -0.555,0 -1.017,0.462 -0.462,0.462 0.092,3.327 0.092,3.327 z"
             style="fill:#5167b0;fill-opacity:1;fill-rule:nonzero;stroke:none"
             id="path612"
             inkscape:connector-curvature="0" /></g><g
           id="g614"
           transform="translate(127.7773,117.7793)"><path
             d="m 0,0 c 0,0 -0.185,-1.386 1.293,-2.495 1.479,-1.109 4.252,-3.143 4.714,-4.344 0,-0.924 -3.512,0.093 -5.083,0.924 -1.571,0.832 -3.05,2.773 -3.05,2.773 l 0.092,-0.832 c 0,0 -0.554,0 -1.016,0.462 -0.462,0.462 0.092,3.327 0.092,3.327 z"
             style="fill:#5167b0;fill-opacity:1;fill-rule:nonzero;stroke:none"
             id="path616"
             inkscape:connector-curvature="0" /></g></g></g><g
       id="g618"><g
         id="g620"
         clip-path="url(#clipPath624)"><g
           id="g626"><g
             id="g628"><path
               d="m 136.968,212.085 c 3.326,-5.404 11.429,-12.053 14.962,-12.053 v 0 c 3.533,0 21.611,1.663 23.066,3.326 v 0 c 1.454,1.661 0.208,3.948 -0.832,3.948 v 0 c -1.038,0 -14.13,-0.625 -17.246,0 v 0 c -3.118,0.623 -5.819,1.246 -7.679,8.141 v 0 c -3.107,10.425 -7.907,11.184 -7.907,11.184 v 0 c -0.092,0.009 -0.183,0.013 -0.275,0.013 v 0 c -4.226,0 -7.343,-9.27 -4.089,-14.559"
               style="fill:url(#linearGradient638);stroke:none"
               id="path640"
               inkscape:connector-curvature="0" /></g></g></g></g><g
       id="g642"><g
         id="g644"
         clip-path="url(#clipPath648)"><g
           id="g650"
           transform="translate(139.0469,252.605)"><path
             d="m 0,0 c 0,0 4.779,-6.129 3.74,-12.987 -1.039,-6.857 -7.065,-6.546 -8.104,-10.286 -1.039,-3.74 2.909,-9.144 -2.493,-12.676 -5.403,-3.532 -7.897,-2.701 -9.351,-10.182 -1.455,-7.481 -6.65,-11.429 -15.585,-12.26 -8.936,-0.831 -15.169,9.974 -12.884,17.871 2.286,7.895 10.182,5.402 11.845,11.844 1.662,6.442 1.039,11.533 6.649,14.026 5.611,2.494 3.533,11.949 9.143,14.858 C -11.309,3.179 -4.156,4.78 0,0"
             style="fill:#113c7a;fill-opacity:1;fill-rule:nonzero;stroke:none"
             id="path652"
             inkscape:connector-curvature="0" /></g></g></g><g
       id="g654"><g
         id="g656"
         clip-path="url(#clipPath660)"><g
           id="g662"><g
             id="g664"><path
               d="m 126.602,228.714 c 0,0 -10.278,-7.344 -11.294,-9.786 v 0 c -1.016,-2.444 -2.453,-10.046 0.884,-13.774 v 0 c 5.779,-6.456 2.299,-17.548 3.062,-20.811 v 0 c 0.763,-3.261 8.605,-3.666 14.048,-2.614 v 0 c 5.442,1.052 10.483,3.837 10.277,10.183 v 0 c -0.205,6.347 1.473,15.053 1.819,17.912 v 0 c 0.345,2.86 -0.031,10.041 -1.358,14.854 v 0 c -0.28,1.015 -3.699,2.081 -3.699,2.081 v 0 c 0,0 -3.036,2.007 -11.36,2.007 v 0 c -0.75,0 -1.542,-0.016 -2.379,-0.052"
               style="fill:url(#linearGradient674);stroke:none"
               id="path676"
               inkscape:connector-curvature="0" /></g></g></g></g><g
       id="g678"><g
         id="g680"
         clip-path="url(#clipPath684)"><g
           id="g686"
           transform="translate(135.5391,230.0986)"><path
             d="m 0,0 c 0,0 -0.026,-0.128 0.004,-0.331 0.113,-0.753 0.488,-2.68 0.558,-3.484 0.067,-0.772 -0.808,-2.108 -2.891,-2.066 -2.082,0.042 -5.616,0.913 -6.792,3.395 0.096,0.441 -0.053,5.037 -0.346,7.328 z"
             style="fill:#ff7c40;fill-opacity:1;fill-rule:nonzero;stroke:none"
             id="path688"
             inkscape:connector-curvature="0" /></g><g
           id="g690"
           transform="translate(141.312,243.9473)"><path
             d="m 0,0 c -1.115,5.958 -5.835,9.339 -11.173,8.091 0,0 -5.786,-0.58 -8.357,-5.662 -2.572,-5.083 1.205,-9.357 3.623,-12.052 1.02,-1.106 1.789,-1.961 2.276,-2.504 0.176,-0.205 0.349,-0.414 0.532,-0.601 0.034,-0.038 0.052,-0.058 0.052,-0.058 l 0.006,0.005 c 1.651,-1.651 3.546,-2.586 4.946,-3.002 2.328,-0.694 5.081,-0.297 6.567,1.288 C -0.042,-12.91 1.115,-5.957 0,0"
             style="fill:#ff9d6f;fill-opacity:1;fill-rule:nonzero;stroke:none"
             id="path692"
             inkscape:connector-curvature="0" /></g><g
           id="g694"
           transform="translate(142.2676,239.9297)"><path
             d="m 0,0 c 0,0 -4.26,-0.416 -6.753,2.493 -2.494,2.909 -6.027,0 -8.936,2.494 0,0 1.247,-3.117 0,-6.234 -1.247,-3.117 -1.662,-7.897 -1.662,-7.897 l -5.403,8.52 v 7.481 l 6.858,6.442 9.143,0.415 4.363,-4.155 C -2.39,9.559 0.416,3.117 0,0"
             style="fill:#113c7a;fill-opacity:1;fill-rule:nonzero;stroke:none"
             id="path696"
             inkscape:connector-curvature="0" /></g><g
           id="g698"><g
             id="g700" /><g
             id="g728"><g
               clip-path="url(#clipPath704)"
               id="g726"
               style="opacity:0.42999303"><g
                 id="g724"><g
                   clip-path="url(#clipPath708)"
                   id="g722"><g
                     id="g720"><g
                       id="g718"><path
                         d="m 118.544,203.628 12.914,-4.069 12.03,3.361 c -0.176,-0.53 -3.361,-10.261 -10.26,-12.029 -4.96,-1.272 -10.817,3.114 -13.728,5.686 -0.16,1.8 -0.543,3.594 -1.253,5.266 z"
                         style="fill:url(#linearGradient714);stroke:none"
                         id="path716"
                         inkscape:connector-curvature="0" /></g></g></g></g></g></g></g></g></g><g
       id="g730"><g
         id="g732"
         clip-path="url(#clipPath736)"><g
           id="g738"><g
             id="g740"><path
               d="m 115.167,208.125 c 2.909,-9.351 12.675,-16.208 16.208,-15.792 v 0 c 3.532,0.415 17.87,15.584 17.87,17.454 v 0 c 0,1.871 -1.662,3.117 -3.324,2.702 v 0 c -1.663,-0.416 -12.676,-12.261 -13.715,-11.845 v 0 c -1.039,0.417 -7.48,11.221 -13.091,15.17 v 0 c 0,0 -0.472,0.114 -1.116,0.114 v 0 c -1.81,0 -4.978,-0.904 -2.832,-7.803"
               style="fill:url(#linearGradient750);stroke:none"
               id="path752"
               inkscape:connector-curvature="0" /></g></g></g></g><g
       id="g754"><g
         id="g756"
         clip-path="url(#clipPath760)"><g
           id="g762"
           transform="translate(147.2954,209.1045)"><path
             d="M 0,0 C 0,0 -1.945,0.572 -1.373,2.632 -0.801,4.692 2.976,6.294 3.548,6.408 4.12,6.522 9.728,5.379 9.956,4.692 10.185,4.005 8.926,3.662 7.553,4.005 6.18,4.349 4.12,4.463 4.12,4.463 c 0,0 1.487,-1.602 1.373,-2.289 C 5.379,1.487 4.578,0.114 3.433,-0.458 2.289,-1.03 0.916,0.229 0.916,0.229 Z"
             style="fill:#ff9d6f;fill-opacity:1;fill-rule:nonzero;stroke:none"
             id="path764"
             inkscape:connector-curvature="0" /></g><g
           id="g766"
           transform="translate(172.439,206.998)"><path
             d="M 0,0 C 0,0 4.531,3.856 4.785,3.167 5.038,2.478 3.237,0.563 3.237,0.563 c 0,0 6.065,2.324 6.136,1.536 C 9.443,1.31 6.171,-1.16 5.306,-1.744 4.44,-2.329 1.351,-3.166 1.351,-3.166 1.351,-3.166 -0.345,-0.894 0,0"
             style="fill:#ff9d6f;fill-opacity:1;fill-rule:nonzero;stroke:none"
             id="path768"
             inkscape:connector-curvature="0" /></g><g
           id="g770"><g
             id="g772" /><g
             id="g784"><g
               clip-path="url(#clipPath776)"
               id="g782"
               style="opacity:0.57000703"><g
                 transform="translate(151.876,241.4297)"
                 id="g780"><path
                   d="m 0,0 c -1.489,-0.859 -2.704,-2.971 -2.699,-4.69 l 0.18,-63.708 c 0.012,-4.06 2.898,-5.72 6.414,-3.691 l 37.949,21.91 c 1.49,0.861 2.705,2.972 2.7,4.692 L 44.363,18.22 c -0.011,4.06 -2.897,5.72 -6.413,3.691 z"
                   style="fill:#1ae5ff;fill-opacity:1;fill-rule:nonzero;stroke:none"
                   id="path778"
                   inkscape:connector-curvature="0" /></g></g></g></g><g
           id="g786"
           transform="translate(157.6992,218.3428)"><path
             d="m 0,0 c -0.446,-0.258 -0.805,-0.88 -0.804,-1.389 l 0.01,-3.383 c 0.001,-0.512 0.363,-0.718 0.809,-0.461 l 30.943,17.865 c 0.445,0.258 0.805,0.88 0.803,1.391 l -0.009,3.384 c -0.002,0.509 -0.363,0.715 -0.809,0.457 z"
             style="fill:#ffffff;fill-opacity:1;fill-rule:nonzero;stroke:none"
             id="path788"
             inkscape:connector-curvature="0" /></g><g
           id="g790"
           transform="translate(157.7202,210.9795)"><path
             d="m 0,0 c -0.446,-0.258 -0.805,-0.88 -0.804,-1.393 l 0.01,-3.382 c 0.001,-0.512 0.363,-0.715 0.809,-0.457 l 30.943,17.864 c 0.445,0.258 0.805,0.877 0.803,1.389 l -0.01,3.383 c -0.001,0.512 -0.362,0.718 -0.808,0.461 z"
             style="fill:#ffffff;fill-opacity:1;fill-rule:nonzero;stroke:none"
             id="path792"
             inkscape:connector-curvature="0" /></g><g
           id="g794"
           transform="translate(169.7988,205.4971)"><path
             d="m 0,0 c -1.056,-0.61 -1.908,-2.089 -1.905,-3.299 l 0.003,-0.776 c 0.003,-1.214 0.86,-1.702 1.917,-1.093 L 10.022,0.61 c 1.056,0.61 1.911,2.087 1.907,3.3 l -0.002,0.777 c -0.003,1.21 -0.864,1.701 -1.92,1.09 z"
             style="fill:#ffffff;fill-opacity:1;fill-rule:nonzero;stroke:none"
             id="path796"
             inkscape:connector-curvature="0" /></g><g
           id="g798"
           transform="translate(173.7095,383.6426)"><path
             d="M 0,0 -0.018,6.471 C -0.021,7.571 -0.419,8.01 -1.288,7.509 -2.137,7.019 -2.55,6.111 -2.546,5.011 l 0.018,-6.47 c 0.003,-1.123 0.42,-1.529 1.269,-1.039 C -0.391,-1.997 0.003,-1.123 0,0 M -1.291,8.749 C 0.356,9.7 1.164,8.954 1.169,7.083 L 1.187,0.752 c 0.006,-1.849 -0.795,-3.539 -2.443,-4.49 -1.628,-0.94 -2.435,-0.179 -2.441,1.67 l -0.018,6.331 c -0.005,1.871 0.796,3.546 2.424,4.486"
             style="fill:#a0a9b0;fill-opacity:1;fill-rule:nonzero;stroke:none"
             id="path800"
             inkscape:connector-curvature="0" /></g><g
           id="g802"
           transform="translate(182.832,398.2788)"><path
             d="m 0,0 0.035,-12.237 -1.232,-0.712 -2.755,8.324 0.029,-9.897 -1.067,-0.616 -0.034,12.237 1.506,0.87 2.49,-7.425 -0.025,8.848 z"
             style="fill:#a0a9b0;fill-opacity:1;fill-rule:nonzero;stroke:none"
             id="path804"
             inkscape:connector-curvature="0" /></g><g
           id="g806"
           transform="translate(187.0591,400.7192)"><path
             d="m 0,0 0.031,-10.998 3.046,1.759 0.003,-1.24 -4.233,-2.444 -0.034,12.237 z"
             style="fill:#a0a9b0;fill-opacity:1;fill-rule:nonzero;stroke:none"
             id="path808"
             inkscape:connector-curvature="0" /></g><g
           id="g810"
           transform="translate(194.0181,404.7373)"><path
             d="m 0,0 0.035,-12.237 -1.188,-0.686 -0.034,12.237 z"
             style="fill:#a0a9b0;fill-opacity:1;fill-rule:nonzero;stroke:none"
             id="path812"
             inkscape:connector-curvature="0" /></g><g
           id="g814"
           transform="translate(202.0693,409.3853)"><path
             d="m 0,0 0.035,-12.237 -1.233,-0.712 -2.754,8.324 0.028,-9.897 -1.066,-0.616 -0.035,12.237 1.507,0.87 2.49,-7.425 -0.026,8.848 z"
             style="fill:#a0a9b0;fill-opacity:1;fill-rule:nonzero;stroke:none"
             id="path816"
             inkscape:connector-curvature="0" /></g><g
           id="g818"
           transform="translate(209.4946,413.6724)"><path
             d="m 0,0 0.003,-1.24 -3.192,-1.843 0.012,-4.182 2.598,1.5 0.004,-1.225 -2.598,-1.5 0.012,-4.35 3.192,1.842 0.004,-1.239 -4.38,-2.529 -0.035,12.237 z"
             style="fill:#a0a9b0;fill-opacity:1;fill-rule:nonzero;stroke:none"
             id="path820"
             inkscape:connector-curvature="0" /></g><g
           id="g822"
           transform="translate(129.2427,345.9033)"><path
             d="M 0,0 C 0.945,0.546 1.506,1.222 1.502,2.55 L 1.499,3.724 C 1.496,4.824 1.143,5.201 0.262,4.692 L -0.894,4.025 -0.881,-0.509 0,0 M 2.708,-3.44 C 2.71,-3.983 2.724,-4.482 2.923,-4.793 l -1.2,-0.693 c -0.135,0.275 -0.2,0.553 -0.202,1.375 L 1.515,-2.189 C 1.511,-0.81 0.948,-0.694 -0.041,-1.266 L -0.877,-1.749 -0.863,-6.979 -2.05,-7.665 -2.085,4.58 0.29,5.951 C 1.963,6.917 2.668,6.339 2.673,4.527 L 2.676,3.529 C 2.68,2.179 2.267,1.104 1.355,0.239 2.333,0.473 2.699,-0.227 2.703,-1.541 Z"
             style="fill:#a0a9b0;fill-opacity:1;fill-rule:nonzero;stroke:none"
             id="path824"
             inkscape:connector-curvature="0" /></g><g
           id="g826"
           transform="translate(139.3652,357.5308)"><path
             d="m 0,0 0.003,-1.24 -3.198,-1.846 0.011,-4.182 2.605,1.504 0.004,-1.226 -2.605,-1.504 0.013,-4.35 3.198,1.847 0.004,-1.248 -4.387,-2.532 -0.034,12.245 z"
             style="fill:#a0a9b0;fill-opacity:1;fill-rule:nonzero;stroke:none"
             id="path828"
             inkscape:connector-curvature="0" /></g><g
           id="g830"
           transform="translate(144.5811,360.667)"><path
             d="m 0,0 c 1.647,0.951 2.411,0.165 2.416,-1.691 l 0.002,-1.05 -1.129,-0.652 -0.003,1.122 c -0.004,1.101 -0.382,1.544 -1.25,1.042 -0.856,-0.494 -1.25,-1.382 -1.247,-2.483 l 0.019,-6.471 c 0.003,-1.108 0.4,-1.539 1.256,-1.045 0.868,0.501 1.243,1.379 1.24,2.487 L 1.297,-6.298 0.205,-6.929 0.202,-5.703 2.423,-4.42 2.434,-8.023 c 0.005,-1.856 -0.751,-3.513 -2.399,-4.463 -1.628,-0.94 -2.391,-0.161 -2.396,1.695 l -0.018,6.332 C -2.384,-2.604 -1.628,-0.94 0,0"
             style="fill:#a0a9b0;fill-opacity:1;fill-rule:nonzero;stroke:none"
             id="path832"
             inkscape:connector-curvature="0" /></g><g
           id="g834"
           transform="translate(151.1255,364.3208)"><path
             d="M 0,0 0.035,-12.245 -1.153,-12.93 -1.187,-0.686 Z"
             style="fill:#a0a9b0;fill-opacity:1;fill-rule:nonzero;stroke:none"
             id="path836"
             inkscape:connector-curvature="0" /></g><g
           id="g838"
           transform="translate(156.4053,367.4941)"><path
             d="M 0,0 C 1.615,0.933 2.379,0.161 2.384,-1.695 L 2.385,-2.026 1.261,-2.674 1.26,-2.271 c -0.003,1.101 -0.369,1.536 -1.224,1.042 -0.849,-0.49 -1.218,-1.35 -1.215,-2.436 0.008,-2.743 3.59,-0.939 3.6,-4.38 0.005,-1.856 -0.77,-3.509 -2.398,-4.449 -1.628,-0.94 -2.392,-0.175 -2.397,1.681 l -10e-4,0.696 1.11,0.642 0.002,-0.771 c 0.004,-1.1 0.401,-1.517 1.25,-1.026 0.856,0.493 1.25,1.367 1.247,2.468 -0.008,2.729 -3.571,0.936 -3.581,4.377 C -2.353,-2.534 -1.596,-0.922 0,0"
             style="fill:#a0a9b0;fill-opacity:1;fill-rule:nonzero;stroke:none"
             id="path840"
             inkscape:connector-curvature="0" /></g><g
           id="g842"
           transform="translate(166.3594,373.1162)"><path
             d="m 0,0 0.003,-1.24 -1.96,-1.132 0.032,-11.004 -1.188,-0.686 -0.031,11.005 -1.966,-1.136 -0.004,1.24 z"
             style="fill:#a0a9b0;fill-opacity:1;fill-rule:nonzero;stroke:none"
             id="path844"
             inkscape:connector-curvature="0" /></g><g
           id="g846"
           transform="translate(171.0942,370.0664)"><path
             d="M 0,0 C 0.945,0.545 1.505,1.222 1.502,2.55 L 1.499,3.724 C 1.496,4.824 1.143,5.201 0.261,4.692 L -0.894,4.025 -0.881,-0.509 0,0 M 2.708,-3.44 C 2.71,-3.983 2.73,-4.479 2.93,-4.79 L 1.723,-5.487 c -0.135,0.275 -0.2,0.554 -0.202,1.376 L 1.515,-2.189 C 1.511,-0.81 0.948,-0.694 -0.042,-1.266 L -0.878,-1.749 -0.863,-6.979 -2.05,-7.665 -2.085,4.58 0.29,5.951 C 1.963,6.917 2.668,6.339 2.673,4.527 L 2.676,3.529 C 2.68,2.179 2.267,1.103 1.355,0.239 2.333,0.472 2.699,-0.227 2.703,-1.541 Z"
             style="fill:#a0a9b0;fill-opacity:1;fill-rule:nonzero;stroke:none"
             id="path848"
             inkscape:connector-curvature="0" /></g><g
           id="g850"
           transform="translate(178.208,371.3374)"><path
             d="M 0,0 2.375,1.371 1.155,7.743 0,0 M 2.076,9.818 4.154,-1.247 2.967,-1.933 2.551,0.297 -0.143,-1.259 -0.551,-3.963 -1.643,-4.594 0.359,8.827 Z"
             style="fill:#a0a9b0;fill-opacity:1;fill-rule:nonzero;stroke:none"
             id="path852"
             inkscape:connector-curvature="0" /></g><g
           id="g854"
           transform="translate(189.7847,386.6406)"><path
             d="m 0,0 0.003,-1.24 -1.966,-1.135 0.031,-11.005 -1.187,-0.685 -0.031,11.004 -1.96,-1.131 -0.004,1.239 z"
             style="fill:#a0a9b0;fill-opacity:1;fill-rule:nonzero;stroke:none"
             id="path856"
             inkscape:connector-curvature="0" /></g><g
           id="g858"
           transform="translate(193.6221,388.856)"><path
             d="M 0,0 0.035,-12.245 -1.153,-12.93 -1.187,-0.686 Z"
             style="fill:#a0a9b0;fill-opacity:1;fill-rule:nonzero;stroke:none"
             id="path860"
             inkscape:connector-curvature="0" /></g><g
           id="g862"
           transform="translate(200.2949,383.3394)"><path
             d="m 0,0 -0.019,6.471 c -0.002,1.1 -0.4,1.532 -1.269,1.031 -0.849,-0.49 -1.255,-1.387 -1.253,-2.487 l 0.019,-6.471 c 0.003,-1.122 0.414,-1.532 1.263,-1.042 C -0.391,-1.997 0.003,-1.123 0,0 M -1.291,8.749 C 0.356,9.7 1.164,8.954 1.169,7.083 L 1.187,0.752 c 0.005,-1.856 -0.795,-3.539 -2.443,-4.49 -1.628,-0.94 -2.436,-0.186 -2.441,1.67 l -0.018,6.331 c -0.005,1.871 0.796,3.546 2.424,4.486"
             style="fill:#a0a9b0;fill-opacity:1;fill-rule:nonzero;stroke:none"
             id="path864"
             inkscape:connector-curvature="0" /></g><g
           id="g866"
           transform="translate(209.4175,397.9756)"><path
             d="m 0,0 0.035,-12.245 -1.232,-0.711 -2.755,8.331 0.028,-9.905 -1.066,-0.616 -0.034,12.245 1.506,0.87 2.49,-7.425 -0.025,8.848 z"
             style="fill:#a0a9b0;fill-opacity:1;fill-rule:nonzero;stroke:none"
             id="path868"
             inkscape:connector-curvature="0" /></g></g></g></g></svg>